<svg id="eZKfRNyJrY11" xmlns="http://www.w3.org/2000/svg" xmlns:xlink="http://www.w3.org/1999/xlink" viewBox="0 0 419 419" shape-rendering="geometricPrecision" text-rendering="geometricPrecision"><style><![CDATA[#eZKfRNyJrY1119_to {animation: eZKfRNyJrY1119_to__to 3000ms linear infinite alternate forwards}@keyframes eZKfRNyJrY1119_to__to { 0% {transform: translate(339.644108px,97.559949px)} 6.666667% {transform: translate(339.644108px,97.559949px)} 20% {transform: translate(354.438637px,138.347391px)} 100% {transform: translate(354.438637px,138.347391px)}} #eZKfRNyJrY1120_to {animation: eZKfRNyJrY1120_to__to 3000ms linear infinite alternate forwards}@keyframes eZKfRNyJrY1120_to__to { 0% {transform: translate(331.096608px,93.076446px)} 6.666667% {transform: translate(331.096608px,93.076446px)} 20% {transform: translate(345.891137px,133.863889px)} 100% {transform: translate(345.891137px,133.863889px)}} #eZKfRNyJrY1121_to {animation: eZKfRNyJrY1121_to__to 3000ms linear infinite alternate forwards}@keyframes eZKfRNyJrY1121_to__to { 0% {transform: translate(331.096608px,96.372948px)} 6.666667% {transform: translate(331.096608px,96.372948px)} 20% {transform: translate(345.891137px,137.160391px)} 100% {transform: translate(345.891137px,137.160391px)}} #eZKfRNyJrY1122_to {animation: eZKfRNyJrY1122_to__to 3000ms linear infinite alternate forwards}@keyframes eZKfRNyJrY1122_to__to { 0% {transform: translate(331.096608px,96.372948px)} 6.666667% {transform: translate(331.096608px,96.372948px)} 20% {transform: translate(345.891137px,137.160391px)} 100% {transform: translate(345.891137px,137.160391px)}}]]></style><path d="M341.876,212.014c73.102,42.961,73.102,112.571,0,155.533-73.101,42.933-191.65,42.933-264.752,0-73.10153-42.962-73.10153-112.572,0-155.533c73.102-42.934,191.651-42.934,264.752,0Z" fill="#f5f5f5"/><path d="M78.744,289.864c10.8381,6.257,10.8381,16.397,0,22.654-10.8382,6.257-28.4082,6.257-39.2184,0-10.8382-6.257-10.8382-16.397,0-22.654c10.8102-6.257,28.3802-6.257,39.2184,0Z" fill="#e0e0e0"/><path d="M102.515,300.06l166.343-96.035c2.011-1.173,5.252-1.173,7.263,0l98.269,56.733c2.012,1.145,2.012,3.016,0,4.19L208.047,360.982c-2.011,1.146-5.251,1.146-7.262,0l-98.27-56.732c-2.011-1.173-2.011-3.045,0-4.19v0Z" fill="#e0e0e0"/><path d="M350.508,244.584l-6.844-3.938c-2.719-11.285-3.538-22.012-2.458-32.18c2.29-21.424,13.827-30.754,21.76-27.626c5.279,2.067,6.899,8.073-1.956,20.839-5.251,7.514-11.676,23.212-10.502,42.905v0Z" fill="#80ffdb"/><g opacity="0.3"><path d="M350.508,244.584l-6.844-3.938c-2.719-11.285-3.538-22.012-2.458-32.18c2.29-21.424,13.827-30.754,21.76-27.626c5.279,2.067,6.899,8.073-1.956,20.839-5.251,7.514-11.676,23.212-10.502,42.905v0Z" opacity="0.3"/></g><path d="M347.183,235.897c-3.799-20.056,3.241-42.626,11.928-52.012.195-.195.475-.223.67-.028.196.168.224.475.028.671-8.547,9.218-15.447,31.425-11.676,51.173.028.28-.14.503-.391.559-.019,0-.037.009-.056.028-.251,0-.447-.168-.503-.391Z" fill="#fff"/><path d="M350.228,244.417c-1.806-2.44-3.026-4.311-3.659-5.615-1.145-2.346-1.564-3.911-1.844-6.061-.167-1.285-.084-2.57.531-3.688c1.397-2.597,4.05-3.799,4.832-6.62.866-3.212-2.067-6.704-.726-9.749.671-1.536,2.291-2.458,3.883-2.961c1.62-.53,3.324-.754,4.832-1.452c3.967-1.844,5.922-6.453,9.609-8.771c1.146-.698,2.431-1.369,3.771-1.536c1.453-.168,3.073-.112,4.19.81c1.369,1.145,1.565,3.212,1.062,4.944-.503,1.704-1.536,3.184-2.319,4.776-.363.755-.67,1.565-.698,2.375-.056,1.341.587,2.598,1.397,3.687c1.117,1.48,2.542,2.682,3.771,4.078c1.201,1.397,2.262,3.073,2.374,4.916.112,2.403-1.648,4.246-3.352,5.671-1.564,1.285-3.24,2.765-3.408,4.777-.084,1.005.252,1.983.587,2.905.316.968.642,1.927.977,2.877.336.977.671,1.955.866,2.961.364,1.955.252,3.882-.558,5.698-.671,1.564-1.76,2.989-3.129,3.995-.81.614-3.687,3.072-4.776,2.514-.112-.056-6.183-3.567-18.213-10.531v0Z" fill="#80ffdb"/><g opacity="0.1"><path d="M350.228,244.417c-1.806-2.44-3.026-4.311-3.659-5.615-1.145-2.346-1.564-3.911-1.844-6.061-.167-1.285-.084-2.57.531-3.688c1.397-2.597,4.05-3.799,4.832-6.62.866-3.212-2.067-6.704-.726-9.749.671-1.536,2.291-2.458,3.883-2.961c1.62-.53,3.324-.754,4.832-1.452c3.967-1.844,5.922-6.453,9.609-8.771c1.146-.698,2.431-1.369,3.771-1.536c1.453-.168,3.073-.112,4.19.81c1.369,1.145,1.565,3.212,1.062,4.944-.503,1.704-1.536,3.184-2.319,4.776-.363.755-.67,1.565-.698,2.375-.056,1.341.587,2.598,1.397,3.687c1.117,1.48,2.542,2.682,3.771,4.078c1.201,1.397,2.262,3.073,2.374,4.916.112,2.403-1.648,4.246-3.352,5.671-1.564,1.285-3.24,2.765-3.408,4.777-.084,1.005.252,1.983.587,2.905.316.968.642,1.927.977,2.877.336.977.671,1.955.866,2.961.364,1.955.252,3.882-.558,5.698-.671,1.564-1.76,2.989-3.129,3.995-.81.614-3.687,3.072-4.776,2.514-.112-.056-6.183-3.567-18.213-10.531v0Z" opacity="0.1"/></g><path d="M357.463,249.054c-1.76-19.051,6.229-40.643,12.514-47.124.168-.195.475-.195.67-.028.196.196.196.503,0,.671-6.145,6.368-13.966,27.598-12.235,46.397.028.251-.167.503-.419.531-.018,0-.027,0-.027,0-.252,0-.475-.196-.503-.447v0Z" fill="#fff"/><path d="M359.362,226.009c-.083-.252.028-.531.28-.615c6.089-2.207,13.715-2.933,13.799-2.933.279-.028.503.168.531.419c0,.251-.168.503-.447.531-.084,0-7.598.698-13.548,2.877-.056.019-.102.028-.14.028-.195,0-.391-.112-.475-.307v0Z" fill="#fff"/><path d="M110.029,286.931l158.913-91.733c2.291-1.341,5.978-1.341,8.268,0l90.253,52.096c2.291,1.341,4.134,4.413,4.134,6.899c0,2.458-1.843,5.559-4.134,6.872L208.55,352.826c-2.29,1.313-6.005,1.313-8.296,0l-90.225-52.124c-2.29-1.313-4.162-4.413-4.162-6.871c0-2.486,1.872-5.587,4.162-6.9v0Z" fill="#37474f"/><path d="M110.029,286.931l158.913-91.733c2.291-1.341,5.978-1.341,8.268,0l90.253,52.096c2.291,1.341,2.291,3.464,0,4.804L208.55,343.831c-2.29,1.313-6.005,1.313-8.296,0l-90.225-52.123c-2.29-1.313-2.29-3.464,0-4.777v0Z" fill="#455a64"/><path d="M204.416,344.837v8.967c-1.508,0-3.017-.336-4.134-.978l-90.253-52.124c-2.29-1.313-4.162-4.413-4.162-6.871c0-2.347,1.648-5.196,3.743-6.62-1.871,1.312-1.731,3.268.419,4.497l90.253,52.123c1.117.671,2.626,1.006,4.134,1.006v0Z" fill="#263238"/><path d="M101.985,287.071c-2.1512-1.229-2.0394-3.324-2.0394-5.978v-124.638c0-2.654,1.8714-5.866,4.1624-7.179L263.02,57.5426c2.291-1.3408,5.866-1.3966,8.017-.1676c2.151,1.257,2.039,3.3521,2.039,5.9778v124.6662c0,2.626-1.843,5.838-4.134,7.179L110.03,286.931c-2.291,1.313-5.894,1.397-8.045.14v0Z" fill="#37474f"/><path d="M273.076,63.3528c0-2.6258-1.843-3.7152-4.134-2.4023L110.029,152.712c-1.145.67-2.206,1.787-2.933,3.1l-5.921-3.436c.754-1.313,1.787-2.43,2.933-3.1L263.02,57.5426c2.291-1.3408,5.866-1.3966,8.017-.1676c2.151,1.257,2.039,3.352,2.039,5.9778v0Z" fill="#455a64"/><path d="M109.527,287.183c-2.291,1.061-5.531,1.061-7.542-.112-2.1511-1.229-2.0115-3.324-2.0115-5.978v-124.638c0-1.313.4465-2.794,1.2015-4.079l5.922,3.436c-.755,1.313-1.23,2.766-1.23,4.078v124.639c0,2.458,1.621,3.575,3.66,2.654v0Z" fill="#263238"/><path d="M112.264,157.488L265.45,69.0512c1.397-.7821,2.486-.1397,2.486,1.4525v108.8003c0,1.592-1.089,3.52-2.486,4.302L112.264,272.043c-1.397.81-2.514.167-2.514-1.425v-108.828c0-1.564,1.117-3.492,2.514-4.302v0Z" fill="#fafafa"/><path d="M121.482,287.183l147.516-85.169c1.145-.643,2.989-.643,4.134,0l2.458,1.341c1.145.67,1.145,1.732,0,2.402L128.074,290.898c-1.145.67-3.017.67-4.162,0l-2.43-1.313c-1.145-.671-1.145-1.732,0-2.402v0Z" fill="#263238"/><path d="M133.074,294.054l147.488-85.169c1.146-.642,2.85-.754,3.799-.195l38.381,22.179c.95.531.782,1.508-.363,2.179L175.058,318.077c-1.145.67-2.849.782-3.799.223l-38.548-22.067c-.949-.531-.782-1.508.363-2.179v0Z" fill="#263238"/><path d="M260.199,244.696l-4.413-2.57c-.168-.084-.168-.251.028-.363l4.636-2.682c.196-.111.475-.111.671-.028l4.413,2.57c.168.084.14.252-.056.363l-4.609,2.682c-.195.112-.502.112-.67.028Zm-5.391-9.274l4.413,2.542c.168.112.168.279-.055.391l-4.609,2.654c-.196.139-.503.139-.671.028l-4.413-2.542c-.168-.112-.168-.28.028-.391l4.637-2.654c.195-.112.502-.14.67-.028Zm-14.916,8.604l4.413,2.569c.168.084.14.252-.056.364l-7.793,4.525c-.196.112-.503.112-.671.028l-4.441-2.57c-.168-.084-.14-.252.056-.363l7.821-4.525c.196-.112.475-.112.671-.028Zm8.156-4.721l4.414,2.57c.195.084.167.251-.028.391l-4.609,2.653c-.196.112-.503.112-.671.028l-4.441-2.569c-.168-.084-.14-.252.056-.364l4.609-2.681c.195-.112.502-.112.67-.028ZM229.947,249.78l4.414,2.542c.167.112.139.279-.056.391l-4.609,2.654c-.196.139-.503.139-.671.027l-4.413-2.541c-.196-.112-.168-.28.028-.392l4.609-2.653c.223-.112.503-.14.698-.028Zm-6.76,3.883l4.414,2.569c.167.084.167.252-.028.392l-4.637,2.653c-.196.112-.475.112-.67.028l-4.414-2.57c-.167-.084-.167-.251.056-.363l4.609-2.681c.196-.112.503-.112.67-.028Zm15.978,10.475l-4.413-2.57c-.196-.084-.168-.28.028-.391l4.609-2.654c.195-.112.503-.112.67-.028l4.442,2.542c.167.112.139.279-.056.391l-4.609,2.682c-.196.111-.503.111-.671.028Zm-6.76,3.882l-4.413-2.542c-.168-.111-.168-.279.028-.391l4.637-2.681c.195-.112.503-.112.67,0l4.414,2.542c.167.111.167.279-.028.391l-4.637,2.653c-.196.112-.503.14-.671.028Zm-6.732,3.911l-4.441-2.57c-.168-.084-.14-.279.056-.391l4.609-2.654c.195-.111.503-.111.67-.028l4.414,2.542c.195.112.167.28-.028.391l-4.609,2.682c-.196.112-.503.112-.671.028Zm-6.759,3.883l-4.414-2.542c-.195-.112-.167-.28.028-.391l4.609-2.682c.196-.112.503-.112.67,0l4.442,2.542c.167.112.14.279-.056.391l-4.609,2.654c-.196.112-.503.139-.67.028Zm34.525-27.235l-4.413-2.542c-.168-.112-.14-.28.056-.391l4.609-2.654c.195-.112.502-.14.67-.028l4.413,2.542c.168.112.168.279-.027.391l-4.609,2.654c-.224.112-.503.139-.699.028Zm-7.542,11.648l-4.413-2.542c-.168-.112-.14-.279.056-.391l4.245-2.458c.196-.112.224-.28.056-.391l-5.698-3.268c-.168-.112-.14-.28.056-.392l5.335-3.072c.196-.14.475-.14.67-.028l10.727,6.173c.167.112.14.279-.056.391l-10.307,5.95c-.196.112-.475.14-.671.028v0Zm-29.469-2.654l4.413,2.542c.196.112.168.28-.028.391l-4.609,2.654c-.195.14-.503.14-.67.028l-4.442-2.542c-.167-.112-.139-.279.056-.391l4.609-2.654c.196-.112.503-.139.671-.028Zm-6.732,3.883l4.413,2.57c.168.084.14.251-.056.391l-4.609,2.654c-.195.111-.503.111-.67.028l-4.414-2.57c-.167-.084-.167-.252.028-.363l4.637-2.682c.196-.112.475-.112.671-.028Zm-42.459,39.079c-.168-.084-.14-.252.056-.363l4.609-2.682c.195-.112.503-.112.67-.028l4.414,2.57c.167.084.167.251-.028.363l-4.637,2.682c-.196.111-.475.111-.671.028l-4.413-2.57ZM155.7,292.63l4.414,2.542c.168.111.14.279-.056.391l-4.609,2.653c-.195.112-.503.14-.67.028l-4.414-2.542c-.167-.111-.167-.279.028-.391l4.637-2.653c.196-.112.475-.14.67-.028Zm3.464,5.279c-.167-.112-.167-.279.028-.391l4.637-2.654c.196-.111.475-.139.67-.028l4.414,2.542c.168.112.14.28-.056.391l-4.609,2.654c-.195.14-.503.14-.67.028l-4.414-2.542Zm22.375,6.76l-4.414-2.542c-.195-.112-.167-.279.028-.391l4.609-2.654c.196-.112.503-.139.671-.028l4.441,2.542c.168.112.14.28-.056.391l-4.609,2.682c-.195.112-.503.112-.67,0Zm-11.174,1.369c-.167-.112-.167-.28.028-.391l4.637-2.682c.196-.112.503-.112.671-.028l4.413,2.57c.168.084.168.279-.028.391l-4.637,2.654c-.195.111-.502.139-.67.028l-4.414-2.542Zm-7.905-17.291l4.414,2.542c.167.112.139.279-.056.391l-4.609,2.681c-.196.112-.503.112-.67,0l-4.414-2.541c-.168-.112-.168-.28.028-.392l4.637-2.653c.195-.112.475-.14.67-.028Zm33.744-19.498l4.413,2.57c.168.084.168.252-.028.391l-4.637,2.654c-.195.112-.502.112-.67.028l-4.413-2.57c-.168-.084-.168-.251.027-.363l4.637-2.682c.196-.111.503-.111.671-.028Zm-27.012,15.587l4.414,2.57c.195.084.167.279-.028.391l-4.609,2.654c-.196.112-.503.112-.671.028l-4.441-2.542c-.168-.112-.14-.28.056-.391l4.609-2.682c.195-.112.503-.112.67-.028Zm33.744-19.469l4.441,2.542c.168.111.14.279-.056.391l-4.609,2.653c-.195.14-.503.14-.67.028l-4.414-2.542c-.195-.111-.167-.279.028-.391l4.609-2.653c.196-.112.503-.14.671-.028Zm-13.492,7.793l4.413,2.542c.196.112.168.279-.028.391l-4.609,2.654c-.195.139-.502.139-.67.028l-4.441-2.542c-.168-.112-.14-.28.056-.391l4.609-2.654c.195-.112.502-.14.67-.028Zm-6.732,3.883l4.413,2.57c.168.083.14.279-.055.391l-4.609,2.653c-.196.112-.503.112-.671.028l-4.413-2.542c-.168-.111-.168-.279.028-.391l4.637-2.681c.195-.112.474-.112.67-.028Zm-6.76,3.91l4.414,2.542c.167.112.167.28-.028.391l-4.637,2.682c-.196.112-.475.112-.671,0l-4.413-2.542c-.168-.112-.14-.279.056-.391l4.609-2.654c.195-.111.503-.139.67-.028v0Zm60.923-.921c.167.083.167.279-.028.391L198.83,302.35c-.196.112-.503.14-.671.028l-4.413-2.542c-.196-.111-.168-.279.028-.391l38.017-21.955c.195-.112.503-.112.67,0l4.414,2.542Zm32.849-53.241l4.414,2.542c.195.111.167.279-.028.391l-4.609,2.681c-.196.112-.503.112-.671.028l-4.441-2.57c-.168-.083-.14-.279.056-.391l4.609-2.653c.195-.112.503-.14.67-.028Zm-8.156,4.72l4.413,2.542c.168.112.168.28-.056.391l-4.609,2.682c-.195.112-.502.112-.67,0l-4.413-2.542c-.168-.084-.168-.279.027-.391l4.637-2.654c.196-.111.475-.139.671-.028Zm14.916-8.603l4.414,2.542c.167.084.167.279-.028.391l-4.637,2.654c-.196.111-.475.139-.671.028l-4.413-2.542c-.168-.112-.14-.28.056-.391l4.609-2.682c.195-.112.503-.112.67,0Zm-38.66,34.693l-4.413-2.542c-.168-.111-.168-.279.028-.391l4.637-2.681c.195-.112.503-.112.67,0l4.414,2.542c.167.083.167.279-.028.391l-4.637,2.653c-.196.112-.503.14-.671.028Zm49.834-36.062c.167.112.139.28-.056.391l-4.609,2.682c-.196.112-.503.112-.671.028l-4.413-2.57c-.168-.084-.168-.279.028-.391l4.637-2.654c.195-.111.475-.139.67-.028l4.414,2.542Zm-75.504,58.157l-4.414-2.541c-.167-.112-.139-.28.056-.392l4.609-2.681c.196-.112.503-.112.671,0l4.413,2.542c.168.084.168.279-.028.391l-4.637,2.654c-.195.111-.475.139-.67.027Zm82.794-47.793l-4.441-2.542c-.168-.112-.14-.28.056-.391l4.609-2.682c.195-.112.502-.112.67,0l4.413,2.542c.196.112.168.279-.027.391l-4.609,2.654c-.196.111-.503.139-.671.028Zm-13.073.251l-4.413-2.542c-.168-.112-.168-.279.028-.391l4.637-2.654c.195-.139.475-.139.67-.028l4.414,2.542c.167.112.139.28-.056.391l-4.609,2.654c-.196.112-.503.14-.671.028v0Zm12.068-6.955c.195.083.167.251-.028.363l-4.609,2.681c-.196.112-.503.112-.671.028l-4.413-2.57c-.196-.083-.168-.251.028-.391l4.609-2.653c.195-.112.502-.112.67-.028l4.414,2.57Zm-2.961-3.744l4.637-2.681c.195-.112.502-.112.67-.028l10.726,6.201c.168.112.168.279-.056.391l-4.609,2.654c-.195.14-.502.14-.67.028l-10.726-6.173c-.168-.112-.168-.28.028-.392v0Zm-14.945,8.995l4.414,2.542c.167.112.167.279-.028.391l-4.637,2.682c-.196.111-.475.111-.671,0l-4.413-2.542c-.168-.112-.168-.28.056-.391l4.609-2.654c.195-.112.503-.14.67-.028Zm-50.81,29.33l4.413,2.542c.196.112.168.279-.028.391l-4.609,2.682c-.195.111-.503.111-.67,0l-4.442-2.542c-.167-.112-.139-.28.056-.391l4.609-2.654c.196-.112.503-.14.671-.028Zm58.548-26.509c-.196-.111-.168-.279.028-.391l4.609-2.653c.195-.112.503-.14.67-.028l4.442,2.542c.167.111.139.279-.056.391l-4.609,2.653c-.196.14-.503.14-.671.028l-4.413-2.542Zm-51.789,22.626l4.414,2.542c.167.112.167.28-.028.391l-4.637,2.654c-.196.112-.475.14-.67.028l-4.414-2.542c-.167-.112-.14-.279.056-.391l4.609-2.654c.196-.139.503-.139.67-.028Zm-57.989,40.755c-.168-.084-.168-.279.028-.391l4.637-2.654c.195-.111.502-.139.67-.028l4.414,2.542c.167.112.167.28-.028.391l-4.637,2.682c-.196.112-.503.112-.671.028l-4.413-2.57Zm-2.766-5.698l4.442,2.542c.167.111.139.279-.056.391l-4.609,2.653c-.196.112-.503.14-.67.028l-4.414-2.542c-.195-.111-.168-.279.028-.391l4.609-2.681c.196-.112.503-.112.67,0Zm13.939,4.329l-4.413-2.542c-.168-.111-.168-.279.028-.391l4.637-2.653c.195-.112.474-.14.67-.028l4.413,2.542c.168.111.14.279-.055.391l-4.609,2.681c-.196.112-.503.112-.671,0Zm6.76-3.882l-4.441-2.542c-.168-.112-.14-.28.055-.391l4.609-2.682c.196-.112.503-.112.671-.028l4.413,2.57c.196.084.168.251-.028.391l-4.609,2.654c-.195.111-.502.111-.67.028Zm6.732-3.911l-4.414-2.542c-.167-.112-.139-.279.056-.391l4.609-2.654c.196-.112.503-.139.671-.028l4.413,2.542c.168.112.168.28-.028.391l-4.637,2.654c-.195.14-.475.14-.67.028Zm-20.671-.447l4.414,2.542c.167.112.167.279-.028.391l-4.637,2.682c-.196.111-.475.111-.671.027l-4.413-2.569c-.168-.084-.14-.28.056-.391l4.609-2.654c.195-.112.503-.112.67-.028v0Zm6.76-3.883l4.414,2.542c.167.112.139.279-.056.391l-4.609,2.654c-.196.112-.503.14-.671.028l-4.413-2.542c-.168-.112-.168-.279.028-.391l4.637-2.682c.195-.112.475-.112.67,0v0Zm26.984-15.587l4.413,2.542c.196.084.168.28-.028.391l-4.609,2.654c-.195.112-.503.14-.67.028l-4.414-2.542c-.195-.112-.167-.279.028-.391l4.609-2.682c.196-.111.503-.111.671,0Zm-6.732,3.883l4.413,2.542c.168.112.14.279-.056.391l-4.609,2.682c-.195.111-.502.111-.67.028l-4.413-2.57c-.168-.084-.168-.28.027-.391l4.637-2.654c.196-.112.475-.14.671-.028Zm13.492-7.793l4.413,2.542c.168.111.168.279-.028.391l-4.637,2.681c-.195.112-.475.112-.67.028l-4.414-2.57c-.167-.083-.139-.279.056-.391l4.609-2.653c.196-.112.503-.14.671-.028ZM191.483,279.25l4.441,2.541c.168.112.14.28-.055.392l-4.609,2.681c-.196.112-.503.112-.671.028l-4.413-2.57c-.196-.084-.168-.279.028-.391l4.609-2.654c.195-.111.502-.111.67-.027Zm6.76-3.883l4.413,2.542c.168.111.168.279-.028.391l-4.636,2.653c-.196.112-.475.14-.671.028l-4.413-2.542c-.168-.111-.14-.279.056-.391l4.609-2.681c.195-.112.502-.112.67,0Zm-9.944,25.419l-4.442-2.542c-.167-.112-.139-.279.056-.391l4.609-2.681c.196-.112.503-.112.671-.028l4.413,2.569c.196.084.168.28-.028.392l-4.609,2.653c-.195.112-.503.112-.67.028v0Zm-34.973-1.313l-4.609,2.654c-.195.112-.503.14-.67.028l-4.442-2.542c-.167-.112-.139-.279.056-.391l4.609-2.682c.196-.111.503-.111.671,0l4.413,2.542c.196.112.168.28-.028.391Zm8.799,2.207l-7.095,4.106c-.195.112-.503.112-.67.028l-4.442-2.57c-.167-.084-.139-.279.056-.391l7.095-4.106c.196-.112.503-.112.671,0l4.413,2.542c.196.112.168.279-.028.391v0Zm-15.391-7.263l-5.699,3.296c-.195.112-.474.112-.67.028l-4.413-2.569c-.168-.084-.14-.252.055-.364l5.671-3.296c.195-.111.503-.111.67-.028l4.414,2.57c.167.084.167.252-.028.363Zm-.028-5.447c-.168-.083-.168-.279.056-.391l4.609-2.653c.195-.112.503-.14.67-.028l4.414,2.542c.167.111.167.279-.028.391l-4.637,2.681c-.196.112-.503.112-.671,0l-4.413-2.542Zm23.52,15.336l-8.883,5.112c-.196.139-.503.139-.67.027l-4.414-2.541c-.195-.112-.167-.28.028-.392l8.883-5.111c.195-.112.503-.14.67-.028l4.414,2.542c.167.111.167.279-.028.391Zm3.1,5.475l-5.67,3.296c-.196.112-.503.112-.67.028l-4.442-2.57c-.167-.084-.14-.252.056-.363l5.67-3.296c.196-.112.503-.112.671-.028l4.441,2.57c.168.083.14.251-.056.363Zm23.576-49.778c-.167-.083-.167-.279.028-.391l4.637-2.653c.196-.112.475-.14.67-.028l4.414,2.542c.167.111.14.279-.056.391l-4.609,2.681c-.196.112-.503.112-.67.028l-4.414-2.57Zm-13.492,7.794c-.167-.112-.167-.279.028-.391l4.637-2.682c.196-.112.475-.112.671-.028l4.413,2.57c.168.084.14.279-.056.391l-4.609,2.654c-.195.112-.503.112-.67.028l-4.414-2.542Zm-29.944,17.291c-.168-.112-.14-.28.056-.391l4.609-2.682c.195-.112.502-.112.67-.028l4.414,2.57c.167.084.167.279-.028.391l-4.637,2.654c-.196.111-.475.139-.671.028l-4.413-2.542Zm36.704-21.174c-.167-.112-.167-.279.028-.391l4.637-2.682c.196-.111.475-.111.67,0l4.414,2.542c.168.084.14.28-.056.391l-4.609,2.654c-.195.112-.503.14-.67.028l-4.414-2.542Zm-13.492,7.794c-.195-.112-.167-.28.028-.392l4.609-2.653c.196-.112.503-.14.671-.028l4.441,2.542c.168.112.14.279-.056.391l-4.609,2.681c-.195.112-.503.112-.67,0l-4.414-2.541Zm4.442,40.531c.167.112.167.279-.028.391l-7.123,4.106c-.196.112-.475.112-.671.028l-4.413-2.542c-.168-.112-.14-.279.056-.391l7.095-4.106c.195-.112.503-.14.67-.028l4.414,2.542Zm-14.134-34.945c-.168-.084-.168-.279.027-.391l4.637-2.654c.196-.111.475-.111.671-.027l4.413,2.541c.168.112.14.28-.056.392l-4.609,2.681c-.195.112-.502.112-.67.028l-4.413-2.57Zm-6.76,3.883c-.168-.112-.14-.279.056-.391l4.609-2.654c.195-.112.502-.139.67-.028l4.413,2.542c.196.112.168.28-.028.391l-4.609,2.682c-.195.112-.502.112-.67,0l-4.441-2.542Zm145.923-41.146c.168.112.168.279-.028.391l-11.368,6.565c-.196.111-.503.111-.671.027l-4.413-2.569c-.196-.084-.168-.252.028-.391l11.369-6.565c.195-.112.502-.112.67,0l4.413,2.542Zm-14.916,8.604c.168.111.14.279-.056.391l-4.609,2.653c-.195.112-.503.14-.67.028l-4.414-2.542c-.167-.111-.167-.279.028-.391l4.637-2.653c.196-.112.475-.14.671-.028l4.413,2.542Zm-96.202,48.24l-4.414-2.541c-.167-.112-.167-.28.028-.392l4.637-2.681c.196-.112.475-.112.67,0l4.414,2.542c.167.084.14.279-.056.391l-4.609,2.654c-.196.111-.503.139-.67.027Zm82.682-40.447c.196.084.168.279-.028.391l-4.609,2.654c-.195.111-.502.139-.67.028l-4.441-2.542c-.168-.112-.14-.28.055-.391l4.609-2.682c.196-.112.503-.112.671-.028l4.413,2.57Zm35.168-20.28c.168.084.168.252-.028.364l-4.637,2.681c-.195.112-.474.112-.67.028l-4.413-2.57c-.168-.084-.14-.251.055-.391l4.609-2.654c.196-.111.503-.111.671-.027l4.413,2.569Zm6.704-3.491l-4.609,2.653c-.195.112-.502.112-.67.028l-10.726-6.201c-.168-.112-.168-.279.027-.391l4.637-2.654c.196-.111.475-.139.671-.028l10.726,6.202c.168.083.14.279-.056.391v0Zm-67.096,38.352c.168.112.168.28-.027.391l-5.699,3.296c-.195.112-.503.112-.67.028l-4.414-2.57c-.167-.083-.167-.279.028-.391l5.699-3.268c.195-.112.502-.112.67-.028l4.413,2.542Zm17.04-9.832c.195.083.167.279-.028.391l-7.095,4.078c-.196.112-.503.14-.671.028l-4.441-2.542c-.168-.112-.14-.279.056-.391l7.095-4.106c.195-.112.503-.112.67-.028l4.414,2.57Zm-64.135,22.458l-4.414-2.542c-.167-.112-.167-.279.028-.391l4.637-2.654c.196-.139.475-.139.671-.028l4.413,2.542c.168.112.168.28-.056.391l-4.609,2.654c-.195.112-.503.14-.67.028Zm-8.687,19.609c.167.084.167.252-.028.363l-5.699,3.297c-.195.111-.503.111-.67.027l-4.414-2.569c-.167-.084-.167-.252.028-.364l5.699-3.296c.195-.111.503-.111.67-.028l4.414,2.57Zm47.961-27.682c.168.112.14.28-.056.391l-5.67,3.269c-.196.111-.503.139-.671.028l-4.413-2.542c-.196-.112-.168-.28.028-.391l5.698-3.269c.196-.139.475-.139.671-.028l4.413,2.542Zm-55.783,32.207c.168.084.14.252-.056.364l-5.67,3.296c-.196.111-.503.111-.67.028l-4.414-2.57c-.168-.084-.168-.252.028-.391l5.698-3.268c.196-.112.475-.112.671-.028l4.413,2.569Zm71.398-41.229c.167.112.167.279-.028.391l-5.698,3.296c-.196.112-.503.112-.671,0l-4.413-2.542c-.168-.084-.168-.279.028-.391l5.698-3.268c.196-.112.503-.14.67-.028l4.414,2.542Zm24.162-13.939c.168.084.14.279-.056.391l-4.609,2.654c-.195.112-.502.112-.67.028l-4.414-2.542c-.195-.112-.167-.279.028-.391l4.609-2.682c.196-.112.503-.112.671-.028l4.441,2.57Zm10.056-13.073l-4.441-2.542c-.168-.111-.14-.279.056-.391l4.609-2.653c.195-.14.502-.14.67-.028l4.414,2.542c.195.111.167.279-.028.391l-4.609,2.653c-.196.112-.503.14-.671.028Zm-27.57,1.341l-4.413-2.57c-.168-.084-.14-.251.055-.391l4.609-2.653c.196-.112.503-.112.671-.028l4.413,2.542c.168.111.168.279-.028.391l-4.637,2.681c-.195.112-.474.112-.67.028Zm-17.905,24.917l-4.442-2.542c-.167-.112-.139-.28.056-.391l13.492-7.794c.196-.111.503-.139.67-.028l4.414,2.542c.195.112.167.28-.028.391l-13.492,7.794c-.195.111-.503.139-.67.028Zm34.302-24.917c-.196-.084-.168-.251.028-.391l4.609-2.654c.195-.111.503-.111.67-.028l4.442,2.57c.167.084.139.252-.056.363l-4.609,2.682c-.196.112-.503.112-.671.028l-4.413-2.57Zm-1.9-1.089l-4.413-2.57c-.168-.084-.168-.279.028-.391l4.637-2.654c.195-.112.475-.14.67-.028l4.414,2.542c.167.112.139.279-.056.391l-4.609,2.682c-.196.112-.503.112-.671.028Zm-39.162,29.888l-4.414-2.542c-.167-.111-.167-.279.028-.391l4.637-2.681c.196-.112.503-.112.671-.028l4.413,2.57c.168.084.168.279-.028.391l-4.637,2.653c-.195.112-.503.112-.67.028Zm26.145-20.195c-.195-.112-.167-.28.028-.391l4.609-2.654c.224-.112.503-.14.671-.028l4.441,2.542c.168.112.14.279-.056.391l-4.609,2.682c-.195.111-.502.111-.67,0l-4.414-2.542Zm-59.889,39.693l-4.413-2.57c-.168-.084-.168-.251.028-.363l4.637-2.682c.195-.111.475-.111.67-.028l4.414,2.57c.167.084.139.252-.056.363l-4.609,2.682c-.196.112-.503.112-.671.028v0Zm6.76-3.911l-4.413-2.542c-.196-.111-.168-.279.028-.391l4.609-2.653c.195-.112.503-.14.67-.028l4.442,2.542c.167.111.139.279-.056.391l-4.609,2.653c-.196.112-.503.14-.671.028Zm-13.519,7.794l-4.414-2.542c-.168-.112-.14-.28.056-.391l4.609-2.654c.195-.112.503-.14.67-.028l4.414,2.542c.167.112.167.279-.028.391l-4.637,2.654c-.196.111-.475.139-.67.028Zm27.011-15.587l-4.413-2.542c-.168-.112-.168-.279.028-.391l4.636-2.654c.196-.112.475-.14.671-.028l4.413,2.542c.168.112.14.279-.056.391l-4.609,2.654c-.195.112-.502.14-.67.028Zm-6.76,3.91l-4.413-2.569c-.168-.084-.14-.252.056-.364l4.609-2.681c.195-.112.502-.112.67-.028l4.413,2.57c.168.084.168.251-.027.363l-4.637,2.682c-.196.111-.475.111-.671.027Zm13.52-7.793l-4.414-2.57c-.195-.084-.167-.251.028-.391l4.609-2.654c.196-.111.503-.111.671-.027l4.413,2.569c.196.084.168.252-.028.364l-4.609,2.681c-.195.112-.502.112-.67.028Zm36.313-54.917c-.167-.112-.139-.279.056-.391l4.609-2.682c.196-.111.503-.111.671,0l1.173.671c.167.112.167.279-.028.391l-4.637,2.654c-.196.111-.475.139-.671.028l-1.173-.671ZM235.059,238.02c-.168-.084-.14-.251.056-.363l4.609-2.682c.195-.112.503-.112.67-.028l4.414,2.57c.167.084.167.252-.028.391l-4.637,2.654c-.196.112-.475.112-.67.028l-4.414-2.57Zm13.52-7.793c-.196-.112-.168-.28.028-.392l4.609-2.681c.195-.112.503-.112.67,0l4.442,2.542c.167.112.139.279-.056.391l-4.609,2.654c-.196.111-.503.139-.671.027l-4.413-2.541Zm-21.732,12.542c-.196-.084-.168-.252.028-.364l4.609-2.681c.195-.112.502-.112.67-.028l4.413,2.57c.196.084.168.251-.027.391l-4.609,2.654c-.196.111-.503.111-.671.027l-4.413-2.569Zm14.972-8.66c-.168-.111-.14-.279.056-.391l4.609-2.653c.195-.112.503-.14.67-.028l4.414,2.542c.195.111.167.279-.028.391l-4.609,2.653c-.196.112-.503.14-.671.028l-4.441-2.542Zm-28.492,16.453c-.196-.084-.168-.279.028-.391l4.609-2.654c.195-.111.503-.139.67-.028l4.442,2.542c.167.112.139.28-.056.391l-4.609,2.682c-.196.112-.503.112-.671,0l-4.413-2.542Zm6.732-3.883c-.168-.111-.14-.279.056-.391l4.609-2.653c.195-.112.503-.14.67-.028l4.414,2.542c.195.111.167.279-.028.391l-4.609,2.653c-.196.14-.503.14-.671.028l-4.441-2.542Zm38.269-20.223c-.168-.112-.168-.28.055-.392l4.609-2.653c.196-.112.503-.14.671-.028l1.173.67c.168.112.168.28-.028.391l-4.637,2.682c-.195.112-.503.112-.67,0l-1.173-.67Zm20.251-11.677c-.167-.111-.167-.279.056-.391l4.609-2.681c.196-.112.503-.112.67,0l1.174.67c.167.112.167.279-.028.391l-4.637,2.654c-.196.112-.503.14-.671.028l-1.173-.671Zm6.034,3.492c-.168-.112-.14-.279.056-.391l4.609-2.654c.195-.111.502-.139.67-.028l4.414,2.542c.195.112.167.28-.028.391l-4.609,2.654c-.196.112-.503.14-.671.028l-4.441-2.542Zm16.592,17.375l-4.413-2.542c-.168-.084-.168-.28.028-.391l4.637-2.654c.195-.112.474-.14.67-.028l4.413,2.542c.168.112.14.279-.055.391l-4.609,2.682c-.196.111-.503.111-.671,0v0Zm-36.146-13.073c-.167-.084-.167-.252.056-.363l4.609-2.682c.196-.112.503-.112.671-.028l1.173.698c.168.084.168.252-.028.364l-4.637,2.681c-.195.112-.503.112-.67.028l-1.174-.698Zm-58.52,31.928c-.167-.112-.167-.28.028-.391l4.637-2.682c.196-.112.475-.112.67-.028l4.414,2.57c.167.084.14.279-.056.391l-4.609,2.654c-.196.111-.503.111-.67.028l-4.414-2.542Z" clip-rule="evenodd" fill="#455a64" fill-rule="evenodd"/><path d="M276.624,265.423l26.09,15.056-.922.53-44.721,25.839-25.168-14.526-.95-.53l45.671-26.369Z" fill="#37474f"/><path d="M276.624,266.512l25.168,14.497-44.721,25.839-25.168-14.526l44.721-25.81Z" fill="#263238"/><path d="M89.7217,188.829l-1.257.727-10.2515-5.922c-1.0056-.559-1.1173-1.676-.2514-2.458l1.8436-1.704-2.486-5.168c-.2794-.559-.2794-.922-.0559-1.061.1676-.112,1.0335-.587,1.2291-.727.1955-.084.5307-.028.9776.224l10.2515,5.922v10.167Z" fill="#80ffdb"/><path d="M89.7217,188.829l-1.257.727-10.2515-5.922c-1.0056-.559-1.1173-1.676-.2514-2.458l1.8436-1.704-2.486-5.168c-.2794-.559-.2794-.922-.0559-1.061.1676-.112,1.0335-.587,1.2291-.727.1955-.084.5307-.028.9776.224l10.2515,5.922v10.167Z" opacity="0.5" fill="#fff"/><path d="M88.4648,179.388v10.168l-10.2516-5.922c-1.0056-.559-1.1173-1.676-.2514-2.458l1.8436-1.704-2.486-5.168c-.5028-1.034-.1118-1.397.8938-.838l10.2516,5.922Z" fill="#80ffdb"/><path d="M89.666,211.26c-.6704,0-1.2012-.531-1.2012-1.201v-34.023c0-.671.5308-1.229,1.2012-1.229s1.2011.558,1.2011,1.229v34.023c0,.67-.5307,1.201-1.2011,1.201Z" fill="#455a64"/><path d="M45.5871,301.903v-2.123h.5028c.6145-1.229,1.7598-2.402,3.4637-3.379c5.2794-3.045,13.855-3.045,19.1623,0c1.676.977,2.8213,2.15,3.4358,3.379h.5307v2.068c.028,2.039-1.2849,4.078-3.9665,5.614-5.3073,3.073-13.8829,3.073-19.1623,0-2.6816-1.536-3.9944-3.547-3.9665-5.559v0Z" fill="#263238"/><path d="M68.716,305.311c-5.3073,3.073-13.8829,3.073-19.1623,0-5.3073-3.044-5.3073-8.017,0-11.061c5.2794-3.073,13.855-3.073,19.1623,0c5.3074,3.044,5.3074,8.017,0,11.061Z" fill="#455a64"/><path d="M62.6266,226.064v72.795c0,.502-.3352,1.033-1.0335,1.424-1.3687.782-3.5755.782-4.9442,0-.6704-.391-1.0056-.922-1.0056-1.424v-72.795h6.9833Z" fill="#37474f"/><path d="M62.6266,238.914v6.816l-6.9833-4.023v-6.844l6.9833,4.051Z" fill="#263238"/><path d="M80.9508,219.556l12.9052,7.458c-.0559.112-.1676.196-.2514.252L71.0344,240.311c-.1955.111-.3352.027-.3352-.196v-16.285c0-2.821.6425-5.978,1.8715-9.106l8.3801,4.832Z" fill="#80ffdb"/><path d="M80.9508,219.556l12.9052,7.458c-.0559.112-.1676.196-.2514.252L71.0344,240.311c-.1955.111-.3352.027-.3352-.196v-16.285c0-2.821.6425-5.978,1.8715-9.106l8.3801,4.832Z" opacity="0.4"/><path d="M93.9677,208.885v18.185L72.5708,214.724c.0186-.056.0466-.112.0838-.168c2.2905-5.726,6.1453-10.587,10.3353-12.989c1.7319-1.006,3.352-1.508,4.8325-1.508c3.771,0,6.1453,3.379,6.1453,8.826Z" fill="#80ffdb"/><path d="M93.9677,208.885v18.185L72.5708,214.724c.0186-.056.0466-.112.0838-.168c2.2905-5.726,6.1453-10.587,10.3353-12.989c1.7319-1.006,3.352-1.508,4.8325-1.508c3.771,0,6.1453,3.379,6.1453,8.826Z" opacity="0.3"/><path d="M117.18,247.405c0,2.654-1.704,5.28-5.139,7.263-3.324,1.928-7.682,2.905-12.1513,2.961-5.1956.056-10.5309-1.089-14.6092-3.464L70.001,245.338c-.3352-.167-.4749-.419-.4749-.642v-1.648c.2235.391.4749.586.7263.81l23.3802-13.492c.6145-.363,1.6481-.363,2.2905,0l15.2799,8.827c2.737,1.592,4.553,3.492,5.391,5.503.186.428.326.866.419,1.313v-.252h.167v1.648v0Z" fill="#80ffdb"/><path d="M117.18,247.405c0,2.654-1.704,5.28-5.139,7.263-3.324,1.928-7.682,2.905-12.1513,2.961-5.1956.056-10.5309-1.089-14.6092-3.464L70.001,245.338c-.3352-.167-.4749-.419-.4749-.642v-1.648c.2235.391.4749.586.7263.81l23.3802-13.492c.6145-.363,1.6481-.363,2.2905,0l15.2799,8.827c2.737,1.592,4.553,3.492,5.391,5.503.186.428.326.866.419,1.313v-.252h.167v1.648v0Z" opacity="0.4"/><path d="M117.125,246.568c-.308,2.402-2.012,4.692-5.084,6.452-3.324,1.928-7.682,2.905-12.1513,2.961-5.1956.084-10.5309-1.089-14.6091-3.436l-15.0282-8.687l23.3803-13.492c.6145-.363,1.648-.363,2.2905,0l15.2798,8.827c2.737,1.592,4.553,3.492,5.391,5.503.279.615.456,1.238.531,1.872v0Z" fill="#80ffdb"/><path d="M117.125,246.568c-.308,2.402-2.012,4.692-5.084,6.452-3.324,1.928-7.682,2.905-12.1513,2.961-5.1956.084-10.5309-1.089-14.6091-3.436l-15.0282-8.687l23.3803-13.492c.6145-.363,1.648-.363,2.2905,0l15.2798,8.827c2.737,1.592,4.553,3.492,5.391,5.503.279.615.456,1.238.531,1.872v0Z" opacity="0.2"/><path d="M117.124,246.568c-.074-.634-.251-1.257-.53-1.872-.838-2.011-2.654-3.911-5.391-5.503l-15.28-8.827c-.6424-.363-1.676-.363-2.2905,0L70.2523,243.858l-.2514-.14c-.6425-.363-.6425-.977,0-1.34l23.6316-13.632c.6145-.363,1.6481-.363,2.2905,0l15.28,8.827c2.737,1.564,4.553,3.492,5.391,5.475.298.67.475,1.341.53,2.011.056.503.056,1.006,0,1.509Z" fill="#80ffdb"/><path d="M117.124,246.568c-.074-.634-.251-1.257-.53-1.872-.838-2.011-2.654-3.911-5.391-5.503l-15.28-8.827c-.6424-.363-1.676-.363-2.2905,0L70.2523,243.858l-.2514-.14c-.6425-.363-.6425-.977,0-1.34l23.6316-13.632c.6145-.363,1.6481-.363,2.2905,0l15.28,8.827c2.737,1.564,4.553,3.492,5.391,5.475.298.67.475,1.341.53,2.011.056.503.056,1.006,0,1.509Z" opacity="0.3"/><path d="M71.0344,240.31l22.5702-13.044.5307,1.257-23.6316,13.631.5307-1.844Z" fill="#80ffdb"/><path d="M71.0344,240.31l22.5702-13.044.5307,1.257-23.6316,13.631.5307-1.844Z" opacity="0.1"/><path d="M91.8728,229.835c0,.364-.2514.81-.5586.978l-.6425.363c-.3073.168-.8101.168-1.1173,0L60.783,214.584c-.3072-.196-.5586-.643-.5586-.978v-22.067c0-.363.2514-.782.5586-.978l.6425-.363c.3073-.168.8101-.168,1.1173,0l28.7714,16.62c.3072.168.5586.615.5586.978v22.039Z" fill="#f5f5f5"/><path d="M91.7051,207.237l-1.5922.922L60.3918,190.98c.1118-.167.2514-.307.3911-.419l.6425-.363c.3072-.168.81-.168,1.1173,0l28.7714,16.62c.1396.084.2793.252.391.419Z" fill="#e0e0e0"/><path d="M89.9734,231.288c.0372.019.0745.028.1117.028h-.0279c-.028,0-.0559,0-.0838-.028v0Z" fill="#80ffdb"/><path d="M90.113,208.159l-.2793.168c.1676.056.2793.251.2793.475v22.039c0,.196-.0558.335-.1676.391-.0838.028-.1676.028-.2793,0-.0372-.019-.0745-.037-.1117-.056L60.783,214.584c-.3072-.196-.5586-.643-.5586-.978v-22.067c0-.168.0558-.363.1676-.559l29.721,17.179Z" fill="#ebebeb"/><path d="M78.7162,213.187L90.113,230.478v.363c0,.196-.0558.335-.1676.391l-11.285-18.017-1.7878.782c-.9776.447-2.1229.084-2.7095-.838l-2.4861-3.966-11.285,4.972c-.0838-.168-.1676-.391-.1676-.559l11.4247-4.469-11.3689-18.213L72.096,208.997l2.123,3.296c.5586.838,1.6201,1.201,2.5698.838l13.3242-4.972-11.3968,5.028Z" opacity="0.2"/><path d="M85.0569,233.746c0,.363-.2514.782-.5586.978l-.6425.363c-.3073.168-.8101.168-1.1173,0l-28.7714-16.62c-.3073-.168-.5587-.615-.5587-.978v-22.039c0-.364.2514-.783.5587-.978l.6425-.363c.3072-.168.81-.168,1.1173,0l28.7714,16.62c.3072.168.5586.615.5586.95v22.067Z" fill="#f5f5f5"/><path d="M84.8894,211.148l-1.5922.922-29.721-17.179c.1117-.168.2514-.335.391-.419l.6425-.363c.3073-.168.8101-.168,1.1173,0l28.7714,16.62c.1676.084.3072.224.391.419Z" fill="#e0e0e0"/><path d="M83.2971,212.042l-.2793.195c.1676.056.2793.224.2793.475v22.04c0,.195-.0558.307-.1676.363-.0838.056-.1676.056-.2793.028-.0373-.019-.0745-.037-.1117-.056l-28.7714-16.62c-.3073-.168-.5587-.615-.5587-.978v-22.039c0-.168.0838-.392.1676-.559l29.7211,17.151Z" fill="#ebebeb"/><path d="M71.9003,217.098l11.3968,17.291v.363c0,.195-.0558.307-.1676.363l-11.285-17.989-1.7599.782c-1.0056.419-2.1508.056-2.7095-.838l-2.4861-3.995-11.285,5.001c-.1118-.196-.1956-.392-.1956-.559l11.4527-4.469-11.3968-18.213l11.8158,18.073l2.1229,3.268c.5587.866,1.6202,1.201,2.5699.866l13.3242-4.972-11.3968,5.028Z" opacity="0.2"/><path d="M78.2693,237.629c0,.363-.2793.81-.5866.978l-.6145.363c-.3073.195-.8101.195-1.1453,0L47.1795,222.377c-.3073-.195-.5587-.614-.5587-.977v-22.04c0-.363.2514-.81.5587-.977l.6146-.364c.3352-.195.838-.195,1.1452,0l28.7434,16.593c.3352.195.5866.614.5866.977v22.04Z" fill="#f5f5f5"/><path d="M78.1017,215.031l-1.5922.922-29.749-17.151c.1117-.168.2514-.336.419-.419l.6145-.364c.3073-.195.838-.195,1.1453,0l28.7434,16.593c.1676.084.3073.251.419.419Z" fill="#e0e0e0"/><path d="M76.5095,215.953l-.3073.167c.1677.084.3073.252.3073.503v22.039c0,.168-.0838.308-.1955.364-.0559.027-.1676.055-.2514,0-.0559-.019-.0931-.028-.1117-.028L47.1795,222.377c-.3073-.195-.5587-.614-.5587-.977v-22.04c0-.195.0559-.391.1677-.558l29.721,17.151Z" fill="#ebebeb"/><path d="M65.0848,220.981l11.4247,17.318v.363c0,.168-.0838.308-.1955.363L65.0289,221.009l-1.7598.782c-.9776.447-2.1508.083-2.7095-.838l-2.4861-3.967-11.285,4.972c-.1118-.167-.1677-.363-.1677-.558l11.4248-4.47-11.3689-18.184l11.7879,18.073l2.1509,3.268c.5307.866,1.6201,1.201,2.5698.838l13.3242-4.972-11.4247,5.028Z" opacity="0.2"/><path d="M90.979,199.472c-2.2906-1.201-5.3353-.978-8.6594.922-3.7151,2.151-7.095,6.033-9.4414,10.503-.5587,1.033-1.0336,2.095-1.4805,3.156-1.2849,3.24-2.0391,6.62-2.0391,9.777v18.603c-.419,0-.838-.111-1.1453-.279l-33.101-19.106c-.6425-.391-1.1453-1.285-1.1453-2.012v-17.653c0-8.799,5.8102-19.302,12.9611-23.436c3.3799-1.956,6.4805-2.123,8.799-.811v-.027L90.979,199.472Z" fill="#80ffdb"/><path d="M90.979,199.472c-2.2906-1.201-5.3353-.978-8.6594.922-3.7151,2.151-7.095,6.033-9.4414,10.503-.5587,1.033-1.0336,2.095-1.4805,3.156-1.2849,3.24-2.0391,6.62-2.0391,9.777v18.603c-.419,0-.838-.111-1.1453-.279l-33.101-19.106c-.6425-.391-1.1453-1.285-1.1453-2.012v-17.653c0-8.799,5.8102-19.302,12.9611-23.436c3.3799-1.956,6.4805-2.123,8.799-.811v-.027L90.979,199.472Z" opacity="0.2"/><path d="M33.967,221.037v-17.654c0-1.676.2235-3.436.6146-5.196l35.3915,20.447c-.3911,1.76-.6145,3.52-.6145,5.196v18.603c-.419,0-.838-.111-1.1453-.279l-33.101-19.106c-.6425-.391-1.1453-1.285-1.1453-2.011v0Z" opacity="0.1"/><path d="M72.8782,210.897c2.3464-4.47,5.7263-8.352,9.4414-10.503-2.8771,1.089-13.408,9.776-13.408,23.436c0,11.508.028,17.486.028,18.548.1303.037.27.055.419.055v-18.603c0-3.157.7542-6.537,2.0391-9.777.4469-1.061.9218-2.123,1.4805-3.156Z" fill="#80ffdb"/><path d="M72.8782,210.897c2.3464-4.47,5.7263-8.352,9.4414-10.503-2.8771,1.089-13.408,9.776-13.408,23.436c0,11.508.028,17.486.028,18.548.1303.037.27.055.419.055v-18.603c0-3.157.7542-6.537,2.0391-9.777.4469-1.061.9218-2.123,1.4805-3.156Z" opacity="0.4"/><path d="M70.5037,242.154c-.2514.14-.5866.251-.9498.251-.0745.019-.1396.028-.1955.028v-18.603c0-3.157.7542-6.537,2.0391-9.777.447-1.061.9218-2.123,1.4805-3.156c2.3743-4.47,5.7263-8.352,9.4415-10.503c3.324-1.9,6.3688-2.123,8.6593-.922c2.6257,1.397,4.3017,4.693,4.3017,9.413v17.626c0,.475-.2234,1.034-.5586,1.453-.1397.195-.3073.363-.4749.475-.0372.018-.0745.046-.1117.084l-.5308-1.257c.1956-.112.3632-.364.3632-.587v-17.794c0-4.078-1.3408-7.011-3.6034-8.212-.7542-.391-1.5922-.614-2.542-.614-1.4804,0-3.1006.502-4.8324,1.508-3.352,1.899-6.4806,5.391-8.7711,9.637-.5773,1.08-1.0987,2.197-1.5643,3.352-.0372.056-.0651.112-.0838.168-1.229,3.128-1.8715,6.285-1.8715,9.106v16.285c0,.223.1397.307.3352.195l-.5307,1.844Z" fill="#80ffdb"/><path d="M70.5037,242.154c-.2514.14-.5866.251-.9498.251-.0745.019-.1396.028-.1955.028v-18.603c0-3.157.7542-6.537,2.0391-9.777.447-1.061.9218-2.123,1.4805-3.156c2.3743-4.47,5.7263-8.352,9.4415-10.503c3.324-1.9,6.3688-2.123,8.6593-.922c2.6257,1.397,4.3017,4.693,4.3017,9.413v17.626c0,.475-.2234,1.034-.5586,1.453-.1397.195-.3073.363-.4749.475-.0372.018-.0745.046-.1117.084l-.5308-1.257c.1956-.112.3632-.364.3632-.587v-17.794c0-4.078-1.3408-7.011-3.6034-8.212-.7542-.391-1.5922-.614-2.542-.614-1.4804,0-3.1006.502-4.8324,1.508-3.352,1.899-6.4806,5.391-8.7711,9.637-.5773,1.08-1.0987,2.197-1.5643,3.352-.0372.056-.0651.112-.0838.168-1.229,3.128-1.8715,6.285-1.8715,9.106v16.285c0,.223.1397.307.3352.195l-.5307,1.844Z" opacity="0.1"/><path d="M149.946,192.628c0-1.368.978-3.072,2.179-3.771l107.404-62.012c1.201-.67,3.156-.67,4.357,0l2.458,1.425c1.201.698,2.179,2.374,2.179,3.771v85.392c0,1.369-.978,3.073-2.179,3.771L158.941,283.188c-1.202.698-3.157.698-4.358,0l-2.458-1.397c-1.201-.698-2.179-2.402-2.179-3.771v-85.392Z" fill="#80ffdb"/><g opacity="0.7"><path d="M149.946,192.628c0-1.368.978-3.072,2.179-3.771l107.404-62.012c1.201-.67,3.156-.67,4.357,0l2.458,1.425c1.201.698,2.179,2.374,2.179,3.771v85.392c0,1.369-.978,3.073-2.179,3.771L158.941,283.188c-1.202.698-3.157.698-4.358,0l-2.458-1.397c-1.201-.698-2.179-2.402-2.179-3.771v-85.392Z" opacity="0.7" fill="#fff"/></g><path d="M152.125,188.857l107.404-61.984c1.201-.726,3.156-.726,4.357,0l2.458,1.397c.615.363,1.146.95,1.537,1.62L156.762,194.053l-6.173-3.548c.391-.698.921-1.285,1.536-1.648Z" fill="#80ffdb"/><path d="M152.125,188.857l107.404-61.984c1.201-.726,3.156-.726,4.357,0l2.458,1.397c.615.363,1.146.95,1.537,1.62L156.762,194.053l-6.173-3.548c.391-.698.921-1.285,1.536-1.648Z" opacity="0.8" fill="#fff"/><path d="M150.589,190.505l6.173,3.548l1.145.67c-.698.28-1.145.95-1.145,1.844v85.364c0,.726.251,1.229.67,1.453.28.139.643.167,1.062.028-.084.028-.168.055-.28.083-.111.056-.279.084-.419.112-.558.112-1.145.14-1.732.056-.316-.037-.614-.102-.893-.196-.205-.074-.401-.167-.587-.279l-2.458-1.424c-1.201-.671-2.179-2.375-2.179-3.744v-85.392c0-.67.251-1.452.643-2.123v0Z" opacity="0.1" fill="#80ffdb"/><path d="M150.589,190.505l6.173,3.548l1.145.67c-.698.28-1.145.95-1.145,1.844v85.364c0,.726.251,1.229.67,1.453.28.139.643.167,1.062.028-.084.028-.168.055-.28.083-.111.056-.279.084-.419.112-.558.112-1.145.14-1.732.056-.316-.037-.614-.102-.893-.196-.205-.074-.401-.167-.587-.279l-2.458-1.424c-1.201-.671-2.179-2.375-2.179-3.744v-85.392c0-.67.251-1.452.643-2.123v0Z" opacity="0.1"/><path d="M156.762,194.053l51.593,19.274c3.659,1.369,7.793,0,9.944-3.268l8.268-12.71l41.314-67.459-39.638,67.934l40.28,19.637c0,.698-.279,1.48-.67,2.179l-39.749-21.593-9.609,15.392c-2.235,3.547-6.704,4.916-10.503,3.212l-6.872-3.017-43.688,69.75c-.419-.224-.67-.727-.67-1.453v-1.396l44.163-66.985-44.163-19.497Z" opacity="0.2" fill="#80ffdb"/><path d="M156.762,194.053l51.593,19.274c3.659,1.369,7.793,0,9.944-3.268l8.268-12.71l41.314-67.459-39.638,67.934l40.28,19.637c0,.698-.279,1.48-.67,2.179l-39.749-21.593-9.609,15.392c-2.235,3.547-6.704,4.916-10.503,3.212l-6.872-3.017-43.688,69.75c-.419-.224-.67-.727-.67-1.453v-1.396l44.163-66.985-44.163-19.497Z" opacity="0.1"/><path d="M177.181,208.383c0-1.397.978-3.073,2.179-3.771L286.764,142.6c1.201-.699,3.156-.699,4.357,0l2.458,1.424c1.201.671,2.179,2.375,2.179,3.771v85.365c0,1.368-.978,3.072-2.179,3.771L186.176,298.942c-1.201.699-3.157.699-4.358,0l-2.458-1.424c-1.201-.698-2.179-2.374-2.179-3.771v-85.364Z" fill="#80ffdb"/><g opacity="0.5"><path d="M177.181,208.383c0-1.397.978-3.073,2.179-3.771L286.764,142.6c1.201-.699,3.156-.699,4.357,0l2.458,1.424c1.201.671,2.179,2.375,2.179,3.771v85.365c0,1.368-.978,3.072-2.179,3.771L186.176,298.942c-1.201.699-3.157.699-4.358,0l-2.458-1.424c-1.201-.698-2.179-2.374-2.179-3.771v-85.364Z" opacity="0.5" fill="#fff"/></g><path d="M179.36,204.612L286.763,142.6c1.202-.699,3.157-.699,4.358,0l2.458,1.424c.587.335,1.145.922,1.537,1.62L183.997,209.807l-6.174-3.575c.392-.671.922-1.285,1.537-1.62v0Z" fill="#80ffdb"/><path d="M179.36,204.612L286.763,142.6c1.202-.699,3.157-.699,4.358,0l2.458,1.424c.587.335,1.145.922,1.537,1.62L183.997,209.807l-6.174-3.575c.392-.671.922-1.285,1.537-1.62v0Z" opacity="0.6" fill="#fff"/><path d="M177.824,206.232l6.173,3.575l1.145.643c-.698.279-1.145.949-1.145,1.843v85.393c0,.726.251,1.201.67,1.424.28.14.643.168,1.034.028-.075.037-.158.065-.252.084-.13.056-.27.102-.419.14-.558.111-1.145.111-1.731.055-.317-.055-.615-.13-.894-.223-.205-.075-.401-.158-.587-.251l-2.458-1.425c-1.201-.698-2.179-2.374-2.179-3.771v-85.364c0-.699.252-1.481.643-2.151v0Z" opacity="0.1"/><path d="M183.997,209.807l51.593,19.246c3.659,1.369,7.793.028,9.944-3.268l8.268-12.682l41.314-67.459-39.666,67.934l40.308,19.609c0,.699-.279,1.481-.67,2.179l-39.749-21.592-9.637,15.391c-2.207,3.548-6.677,4.916-10.475,3.24l-6.872-3.016-43.688,69.721c-.419-.223-.67-.698-.67-1.424v-1.425l44.162-66.984-44.162-19.47Z" opacity="0.4" fill="#80ffdb"/><path d="M183.997,209.807l51.593,19.246c3.659,1.369,7.793.028,9.944-3.268l8.268-12.682l41.314-67.459-39.666,67.934l40.308,19.609c0,.699-.279,1.481-.67,2.179l-39.749-21.592-9.637,15.391c-2.207,3.548-6.677,4.916-10.475,3.24l-6.872-3.016-43.688,69.721c-.419-.223-.67-.698-.67-1.424v-1.425l44.162-66.984-44.162-19.47Z" opacity="0.1"/><path d="M204.64,224.807l111.761-64.553l4.497,2.597c1.145.671,2.095,2.291,2.095,3.632v82.459c0,1.341-.95,2.989-2.095,3.631L213.327,314.697c-1.173.67-3.045.67-4.218,0l-2.374-1.369c-1.146-.67-2.095-2.318-2.095-3.659v-84.862Z" fill="#80ffdb"/><path d="M204.64,224.807l111.761-64.553l4.497,2.597c1.145.671,2.095,2.291,2.095,3.632v82.459c0,1.341-.95,2.989-2.095,3.631L213.327,314.697c-1.173.67-3.045.67-4.218,0l-2.374-1.369c-1.146-.67-2.095-2.318-2.095-3.659v-84.862Z" opacity="0.2"/><path d="M316.401,154.918v5.336L206.344,225.785l-1.704-.978c0-2.029,0-3.808,0-5.335c0-1.396.642-3.464,1.424-4.609l55.029-80.336c.782-1.173,2.458-1.704,3.771-1.201l49.191,18.212c.167.056.325.131.474.224l1.732,1.005-.475.252c.391.586.615,1.257.615,1.899v0Z" fill="#80ffdb"/><path d="M263.356,134.89c-.196.168-.391.391-.559.615l-55.029,80.364c-.419.586-.782,1.424-1.033,2.29l-1.704-.977c.139-.419.279-.838.447-1.229c0-.028,0-.028.028-.028.074-.168.149-.336.223-.503.019-.019.028-.037.028-.056.112-.196.196-.363.307-.503l55.029-80.336c.084-.14.168-.224.279-.335.093-.093.187-.186.28-.28l1.704.978Z" opacity="0.1"/><path d="M316.233,152.767c-.149-.093-.307-.167-.474-.223l-49.191-18.241c-1.034-.391-2.319-.111-3.212.587l-1.704-.978c.893-.698,2.178-.977,3.212-.614l49.191,18.24c.167.056.325.131.474.224l1.704,1.005Z" opacity="0.3" fill="#fff"/><path d="M205.757,215.366c.093-.186.195-.354.307-.503-.112.149-.214.317-.307.503Z" fill="#80ffdb"/><path d="M261.372,134.192c.093-.093.186-.186.28-.28-.094.094-.187.187-.28.28Z" fill="#80ffdb"/><path d="M205.031,217.182c.111-.419.279-.838.447-1.229-.168.391-.336.81-.447,1.229Z" fill="#80ffdb"/><path d="M205.478,215.925c.093-.168.176-.326.251-.475-.075.149-.158.307-.251.475Z" fill="#80ffdb"/><path d="M205.729,215.45c.019-.037.028-.065.028-.084c0,.019-.009.047-.028.084Z" opacity="0.2"/><path d="M261.093,134.527c.074-.13.167-.242.279-.335-.112.093-.205.205-.279.335Z" opacity="0.2"/><path d="M266.568,134.303l49.19,18.241c1.313.475,2.375,1.983,2.375,3.38v5.335L206.344,225.785c0-2.03,0-3.808,0-5.335c0-1.397.642-3.436,1.424-4.581l55.029-80.364c.782-1.146,2.486-1.676,3.771-1.202v0Z" fill="#80ffdb"/><path d="M318.133,161.259L206.344,225.785c0-2.03,0-3.808,0-5.335c0-.671.139-1.481.391-2.263c0-.018,0-.028,0-.028l110.783-64.107c.363.559.615,1.229.615,1.872v5.335Z" opacity="0.1"/><path d="M313.356,243.076c0,1.145-.81,2.542-1.816,3.128l-91.677,52.934c-.503.279-.977.307-1.285.14-.335-.196-3.072-1.788-3.408-1.983-.335-.196-.53-.587-.53-1.174v-109.806c0-1.145.81-2.542,1.815-3.128l91.677-52.934c.503-.279.95-.307,1.285-.112.308.168,3.073,1.76,3.408,1.956.308.195.531.586.531,1.173v109.806Z" fill="#f0f0f0"/><path d="M218.048,298.077v-109.778c0-1.174.81-2.57,1.815-3.157l91.677-52.934c1.006-.558,1.816-.083,1.816,1.062v109.806c0,1.145-.81,2.542-1.816,3.128l-91.677,52.934c-1.005.587-1.815.112-1.815-1.061v0Z" fill="#fafafa"/><path d="M278.607,195.226c-.093,1.304-.326,2.523-.698,3.659-.354,1.136-.792,2.161-1.313,3.073-.522.894-1.099,1.667-1.732,2.318-.633.652-1.266,1.146-1.899,1.481-1.155.596-2.04.81-2.654.642-.615-.167-1.071-.456-1.369-.866-.186.429-.391.866-.614,1.313-.224.447-.503.885-.838,1.313-.336.429-.745.848-1.229,1.257-.485.429-1.09.82-1.816,1.173-.838.447-1.592.596-2.263.447-.67-.13-1.238-.521-1.704-1.173-.447-.652-.782-1.536-1.005-2.654-.205-1.135-.28-2.467-.224-3.994.056-1.546.242-3.017.559-4.413.298-1.379.698-2.645,1.201-3.799.484-1.136,1.08-2.133,1.788-2.989.689-.838,1.462-1.481,2.318-1.928.931-.465,1.62-.614,2.067-.447.447.187.81.522,1.09,1.006v-.447c.018-.372.121-.736.307-1.089.205-.373.428-.615.67-.727l1.816-.921c.242-.131.447-.112.615.055.186.187.27.457.251.811l-.419,10.726c-.037.801.112,1.331.447,1.592s.736.27,1.201.028c.466-.242.866-.67,1.201-1.285.354-.633.578-1.49.671-2.57.074-.931.139-1.899.195-2.905.037-.987.037-1.899,0-2.737-.074-1.769-.298-3.25-.67-4.442-.373-1.173-.931-2.029-1.676-2.57-.726-.521-1.658-.716-2.794-.586-1.154.112-2.523.577-4.106,1.397-1.322.67-2.523,1.554-3.603,2.653s-2.021,2.337-2.821,3.715c-.801,1.378-1.453,2.868-1.956,4.47-.521,1.62-.884,3.268-1.089,4.944-.056.465-.103,1.061-.14,1.788-.056.726-.093,1.48-.112,2.262-.037.782-.065,1.546-.083,2.291-.019.726-.01,1.313.028,1.76.055,1.545.288,2.867.698,3.966.41,1.117.978,1.974,1.704,2.57.707.596,1.583.903,2.626.922c1.024.018,2.206-.317,3.547-1.006.931-.484,1.751-.968,2.458-1.452.689-.485,1.294-.978,1.816-1.481.54-.503.996-.987,1.369-1.452.372-.466.717-.932,1.033-1.397.261-.391.466-.689.615-.894.167-.186.372-.344.614-.475l2.542-1.313c.261-.13.484-.111.671.056.186.149.26.447.223.894-.019.261-.112.549-.279.866-.503.95-1.08,1.955-1.732,3.017-.633,1.043-1.388,2.067-2.263,3.072-.875,1.006-1.899,1.993-3.072,2.961-1.192.969-2.589,1.863-4.19,2.682-2.012,1.024-3.753,1.499-5.224,1.425-1.49-.094-2.728-.596-3.715-1.509-.987-.931-1.741-2.207-2.263-3.827-.521-1.62-.81-3.454-.866-5.503c0-.465.01-1.089.028-1.871.019-.782.047-1.602.084-2.458.037-.857.075-1.667.112-2.43.056-.783.102-1.397.139-1.844.187-2.142.615-4.33,1.285-6.564.671-2.216,1.555-4.339,2.654-6.369c1.117-2.011,2.458-3.855,4.022-5.531c1.565-1.657,3.352-2.998,5.364-4.022c2.327-1.211,4.292-1.807,5.894-1.788c1.601,0,2.895.456,3.882,1.369.987.894,1.704,2.188,2.151,3.882.429,1.676.671,3.585.727,5.727c0,.856-.019,1.862-.056,3.017-.056,1.154-.121,2.197-.196,3.128v0Zm-15.726,6.117c-.075,1.658.093,2.822.502,3.492.391.689.987.829,1.788.419.857-.447,1.518-1.22,1.983-2.318.447-1.099.708-2.496.783-4.19.055-1.639-.103-2.812-.475-3.52-.391-.689-1.015-.819-1.872-.391-.801.41-1.434,1.183-1.899,2.318-.484,1.155-.755,2.552-.81,4.19v0Z" clip-rule="evenodd" fill="#80ffdb" fill-rule="evenodd"/><path d="M218.02,298.077c0,.53.167.893.447,1.117-.615-.335-2.989-1.732-3.297-1.9-.335-.195-.53-.586-.53-1.173v-109.806c0-.558.195-1.201.53-1.787l3.408,1.983c-.335.559-.558,1.201-.558,1.788v109.778Z" fill="#e0e0e0"/><path d="M320.144,250.031c-.028.056-.056.112-.112.168L273.467,235.45c-3.659-1.648-7.961-.307-10.084,3.101l-49.777,73.995-1.843,1.062h-.028c-.559.307-1.062.363-1.425.167l51.23-76.286c2.123-3.408,6.397-4.721,10.056-3.1l48.548,15.642Z" fill="#80ffdb"/><path d="M258.802,245.813l.112-.111-45.308,66.844-1.843,1.062-.028.028c-.559.307-1.062.335-1.425.139l46.705-69.051l1.787,1.089Z" opacity="0.4" fill="#fff"/><path d="M320.144,250.031c-.028.084-.056.112-.112.168L273.467,235.45c-3.659-1.648-7.961-.307-10.084,3.101l-1.843-1.09c2.123-3.38,6.397-4.693,10.056-3.072l48.548,15.642Z" opacity="0.4" fill="#fff"/><path d="M322.937,165.952c-.084-.587-.419-.754-.838-.475-.149.112-.326.298-.53.559l-.224.307-45.978,69.889-6.844,9.553c-.782,1.09-2.486,1.732-3.799,1.425l-5.922-1.397-45.224-16.648c-.316-.074-.624-.093-.922-.056-.111.037-.223.075-.335.112l1.704-.978l43.353,15.894l5.726,2.039c1.285.308,2.989-.307,3.771-1.424l6.872-9.553l46.174-70.197c.167-.223.335-.363.53-.475l-3.994-2.318l1.676-.95l2.765,1.592c1.006.587,1.844,1.9,2.039,3.101v0Z" fill="#80ffdb"/><path d="M275.367,236.232l-6.844,9.553c-.782,1.09-2.486,1.732-3.799,1.425l-5.922-1.397.112-.111.307-.447l3.855.921c1.313.308,3.017-.335,3.799-1.424l6.788-9.442l1.704.922Z" opacity="0.4" fill="#fff"/><path d="M322.937,165.952c-.112-.587-.419-.754-.838-.475-.149.112-.326.298-.531.559l-.223.307-45.978,69.889-1.704-.922v-.028l.056-.083l46.201-70.197c.14-.195.336-.363.531-.475l-3.994-2.318l1.676-.95l2.765,1.592c1.006.587,1.844,1.9,2.039,3.101v0Z" opacity="0.1"/><path d="M214.5,313.998l-1.173.699c-1.173.67-3.045.67-4.218,0l-2.374-1.369c-1.146-.67-2.095-2.318-2.095-3.659v-84.861l9.86,5.698v83.492Z" fill="#80ffdb"/><path d="M214.5,313.998l-1.173.699c-1.173.67-3.045.67-4.218,0l-2.374-1.369c-1.146-.67-2.095-2.318-2.095-3.659v-84.861l9.86,5.698v83.492Z" opacity="0.1"/><path d="M322.993,166.483v82.459c0,.698-.251,1.452-.642,2.123-.335.558-.754,1.061-1.257,1.396l-.084.028c-.028.028-.084.084-.112.084L213.327,314.669l-.028.028c-.559.307-1.061.363-1.425.167-.335-.167-.558-.53-.642-1.005c0-.131,0-.261,0-.391v-82.459c0-1.313,1.033-2.151,2.346-1.844l45.224,16.648l5.922,1.397c1.313.307,3.017-.335,3.799-1.425l6.844-9.553l45.978-69.889.224-.307c.782-1.09,1.424-.894,1.424.447v0Z" fill="#80ffdb"/><path d="M307.267,260.45l-31.9-24.218l47.626,12.738c0,.698-.251,1.452-.642,2.095-.336.558-.755,1.061-1.257,1.396l-.056.028c-.056.028-.112.084-.14.112l-13.631,7.849Z" fill="#80ffdb"/><path d="M307.267,260.45l-31.9-24.218l47.626,12.738c0,.698-.251,1.452-.642,2.095-.336.558-.755,1.061-1.257,1.396l-.056.028c-.056.028-.112.084-.14.112l-13.631,7.849Z" opacity="0.2"/><path d="M211.232,312.099l47.57-66.286-8.435,47.487-37.04,21.397h-.028c-.559.307-1.061.363-1.425.168-.419-.224-.642-.699-.642-1.397v-1.369Z" fill="#80ffdb"/><path d="M263.383,238.523l-51.509,76.342c-.419-.224-.67-.699-.67-1.397l.028-1.369l50.308-74.61c0,0,0-.009,0-.028l1.843,1.062Z" opacity="0.1"/><path d="M322.351,251.065c-.336.558-.755,1.061-1.257,1.396l-.056.028-107.711,62.208h-.028c-.559.307-1.062.363-1.425.168l51.509-76.342c2.123-3.408,6.453-4.749,10.14-3.101l48.828,15.643Z" fill="#80ffdb"/><path d="M205.031,217.182l1.704.977c-.224.81-.391,1.62-.391,2.291c0,1.527,0,3.305,0,5.335l-1.704-.978c0-2.029,0-3.817,0-5.363c0-.642.139-1.48.391-2.262Z" opacity="0.1"/><path d="M214.025,228.243l-1.704.978-1.732-.978-4.245-2.458l1.648-.977l6.033,3.435Z" fill="#80ffdb"/><path d="M257.126,244.026l-.642.921-39.47-14.525-3.436-1.257c-.335-.074-.642-.093-.922-.056-.111.037-.214.075-.307.112h-.028l-1.732-.978-4.245-2.458l1.648-.977l6.117,3.463l43.017,15.755Z" opacity="0.1"/><path d="M124.387,87.1799c0,1.8436-1.285,4.0504-2.849,4.9722L86.9285,112.124c-1.5642.922-2.8492.168-2.8492-1.648c0-1.843,1.285-4.05,2.8492-4.972l5.3074-3.045c-.419-.865-.6425-1.927-.6425-3.2119v-2.7654c0-4.9162,3.4358-10.9219,7.7096-13.38c3.939-2.2626,7.207-.7263,7.654,3.4078.866-1.229,1.927-2.2905,3.072-2.9609c2.85-1.6481,5.168-.3073,5.168,2.9889v1.8436c0,.2793-.019.5586-.056.838l6.397-3.6872c1.564-.8939,2.849-.1676,2.849,1.648v0Z" fill="#f0f0f0"/><path d="M94.1353,66.5372c0,2.2347-1.5642,4.9721-3.5196,6.0895L48.0453,97.208c-1.9553,1.1453-3.5475.2234-3.5475-2.0112c0-2.2626,1.5922-5.0001,3.5475-6.1174l6.5085-3.771c-.5028-1.0615-.8101-2.3743-.8101-3.9386v-3.4079c0-6.0615,4.2738-13.4359,9.5253-16.4806c4.8604-2.7934,8.8549-.8939,9.4135,4.19c1.0615-1.5084,2.3744-2.8213,3.799-3.6314c3.4916-2.0112,6.3408-.391,6.3408,3.6593v2.2905c0,.3352-.0186.6797-.0558,1.0336l7.8492-4.5252c1.9554-1.1174,3.5196-.2235,3.5196,2.0391v0Z" fill="#f0f0f0"/><g id="eZKfRNyJrY1119_to" transform="translate(339.644108,97.559949)"><path d="M339.362,138.047l29.637-18.995l13.073,4.19-42.71,14.805Z" transform="rotate(-0.643091) translate(-360.716995,-128.5495)" fill="#80ffdb"/></g><g id="eZKfRNyJrY1120_to" transform="translate(331.096608,93.076446)"><path d="M359.278,110.085l5.699,6.593-25.615,21.369l19.916-27.962Z" transform="rotate(-0.643091) translate(-352.169495,-124.065998)" fill="#80ffdb"/></g><g id="eZKfRNyJrY1121_to" transform="translate(331.096608,96.372948)"><path d="M364.977,116.678v4.944l-25.615,16.425l25.615-21.369Z" transform="rotate(-0.643091) translate(-352.169495,-127.362499)" fill="#80ffdb"/></g><g id="eZKfRNyJrY1122_to" transform="translate(331.096608,96.372948)"><path d="M364.977,116.678v4.944l-25.615,16.425l25.615-21.369Z" transform="rotate(-0.643091) translate(-352.169495,-127.362499)" opacity="0.3"/></g></svg>