<svg width="432" height="432" viewBox="0 0 432 432" fill="none" xmlns="http://www.w3.org/2000/svg">
<g opacity="0.2">
<path d="M328.81 353.29C315.36 343.901 312.336 326.477 312.854 310.81C312.941 308.189 312.653 305.453 313.891 303.149C315.13 300.845 318.038 299.29 320.4 300.384C322.33 301.306 323.165 303.552 324.259 305.424C325.699 307.901 327.859 309.975 330.394 311.299C332.064 312.163 334.109 312.682 335.75 311.76C338.026 310.522 338.285 307.411 338.256 304.819C338.237 299.962 338.208 295.114 338.17 290.275C338.17 287.683 338.141 285.005 338.947 282.557C339.782 280.08 341.568 277.776 344.016 277.085C346.493 276.394 349.574 277.834 350.093 280.368C350.294 281.434 350.093 282.528 350.15 283.622C350.237 284.688 350.726 285.898 351.763 286.186C352.8 286.502 353.837 285.754 354.614 285.005C357.293 282.355 359.107 278.986 360.835 275.616C362.534 272.246 364.176 268.819 366.624 265.939C369.043 263.088 372.413 260.813 376.128 260.611C379.872 260.381 383.818 262.685 384.768 266.342C385.718 270.029 383.587 273.744 381.254 276.71C377.798 281.117 373.709 285.005 369.158 288.23C368.352 288.806 367.459 289.44 367.142 290.39C366.566 292.118 368.208 293.846 369.936 294.422C371.866 295.056 373.968 294.854 376.013 295.114C378.029 295.344 380.218 296.237 380.995 298.167C382.061 300.816 379.843 303.61 377.654 305.424C373.277 309.082 368.266 311.962 362.938 313.92C361.008 314.611 358.992 315.245 357.466 316.57C355.91 317.923 354.989 320.256 355.91 322.099C356.861 323.914 359.251 324.519 361.238 324.144C363.254 323.77 365.04 322.675 366.97 321.955C370.541 320.602 375.149 320.861 377.424 323.943C378.95 325.959 379.066 328.81 378.317 331.229C377.539 333.648 376.013 335.722 374.371 337.651C368.64 344.362 361.296 349.776 353.03 352.656C344.736 355.536 337.046 356.314 328.81 353.29V353.29Z" fill="#F5F5F5"/>
<path d="M328.608 364.896C329.184 358.704 330.538 351.36 332.842 343.469C335.146 335.578 338.4 327.11 342.086 318.384C343.027 316.195 343.949 314.045 344.851 311.933C345.773 309.83 346.666 307.728 347.702 305.712C349.69 301.709 351.936 298.022 354.154 294.566C356.371 291.139 358.618 287.942 360.749 284.976C362.851 282.01 364.896 279.302 366.854 276.883C370.742 272.074 374.342 268.56 376.934 266.256C378.202 265.075 379.238 264.211 379.93 263.635C380.275 263.366 380.544 263.155 380.736 263.002C380.909 262.848 381.005 262.771 381.024 262.771C381.024 262.79 380.938 262.877 380.765 263.03C380.573 263.203 380.314 263.434 379.987 263.722C379.325 264.326 378.317 265.219 377.05 266.4C374.515 268.733 370.973 272.275 367.114 277.114C365.184 279.504 363.168 282.24 361.066 285.206C358.963 288.202 356.746 291.37 354.528 294.826C352.31 298.253 350.093 301.939 348.106 305.942C347.098 307.93 346.205 310.003 345.312 312.134C344.39 314.246 343.469 316.397 342.547 318.586C338.832 327.283 335.606 335.722 333.274 343.584C330.941 351.475 329.558 358.762 328.925 364.925" fill="#E0E0E0"/>
<path d="M347.818 305.712C347.789 305.712 347.702 305.309 347.558 304.589C347.443 303.869 347.27 302.832 347.098 301.536C346.723 298.944 346.349 295.344 345.917 291.398C345.514 287.424 345.082 283.853 344.678 281.261C344.477 279.994 344.304 278.928 344.16 278.237C344.045 277.517 343.987 277.114 344.016 277.085C344.074 277.085 344.189 277.488 344.362 278.179C344.534 278.899 344.765 279.936 344.995 281.203C345.514 283.795 346.003 287.366 346.406 291.341C346.81 295.258 347.155 298.8 347.414 301.478C347.549 302.707 347.664 303.734 347.76 304.56C347.818 305.28 347.846 305.712 347.818 305.712V305.712Z" fill="#E0E0E0"/>
<path d="M381.254 299.462C381.254 299.491 380.794 299.549 379.93 299.606C379.066 299.693 377.827 299.808 376.301 299.981C373.248 300.298 369.014 300.902 364.406 301.766C359.77 302.659 355.622 303.638 352.656 304.416C351.158 304.819 349.949 305.136 349.142 305.395C348.307 305.626 347.846 305.741 347.818 305.712C347.818 305.683 348.25 305.482 349.085 305.194C349.891 304.906 351.072 304.531 352.57 304.099C355.536 303.206 359.683 302.198 364.32 301.306C368.957 300.442 373.19 299.866 376.272 299.635C377.798 299.491 379.066 299.434 379.93 299.434C380.794 299.405 381.254 299.434 381.254 299.462V299.462Z" fill="#E0E0E0"/>
<path d="M333.274 342.864C333.254 342.864 333.178 342.73 333.043 342.461C332.89 342.134 332.698 341.731 332.467 341.251C331.978 340.186 331.286 338.63 330.48 336.73C328.867 332.899 326.822 327.542 324.634 321.581C322.416 315.648 320.429 310.262 318.874 306.403C318.125 304.531 317.52 303.005 317.059 301.853C316.867 301.354 316.704 300.941 316.57 300.614C316.454 300.326 316.406 300.173 316.426 300.154C316.445 300.154 316.522 300.288 316.656 300.557C316.81 300.883 317.002 301.286 317.232 301.766C317.722 302.832 318.384 304.358 319.19 306.288C320.803 310.118 322.877 315.475 325.066 321.408C327.254 327.37 329.27 332.726 330.797 336.586C331.546 338.486 332.179 340.013 332.64 341.165C332.832 341.664 332.995 342.077 333.13 342.403C333.226 342.691 333.274 342.845 333.274 342.864V342.864Z" fill="#E0E0E0"/>
<path d="M377.683 328.55C377.683 328.55 377.539 328.608 377.251 328.723C376.906 328.838 376.474 328.982 375.955 329.155C374.774 329.53 373.162 330.048 371.203 330.682C367.171 332.006 361.67 333.85 355.565 335.923C349.459 337.997 343.901 339.811 339.84 341.021C337.824 341.626 336.182 342.115 335.059 342.432C334.522 342.566 334.08 342.682 333.734 342.778C333.427 342.854 333.274 342.883 333.274 342.864C333.274 342.845 333.418 342.778 333.706 342.662C334.051 342.547 334.483 342.403 335.002 342.23C336.182 341.856 337.795 341.338 339.754 340.704C343.757 339.408 349.286 337.536 355.392 335.462C361.498 333.389 367.056 331.574 371.088 330.365C373.133 329.76 374.774 329.27 375.898 328.982C376.435 328.829 376.877 328.714 377.222 328.637C377.53 328.56 377.683 328.531 377.683 328.55V328.55Z" fill="#E0E0E0"/>
<path d="M399.514 287.251C399.485 287.251 399.37 287.05 399.168 286.733C398.938 286.349 398.65 285.888 398.304 285.35C397.584 284.141 396.547 282.47 395.366 280.454L395.626 280.541C393.61 281.693 391.277 283.075 388.771 284.544C388.742 284.602 388.915 283.939 388.858 284.227V284.256L388.886 284.285L388.915 284.342L389.002 284.458L389.117 284.688L389.405 285.149C389.578 285.475 389.75 285.782 389.923 286.07C390.269 286.685 390.605 287.28 390.931 287.856C391.594 289.008 392.227 290.102 392.803 291.11L392.544 291.053C394.56 289.901 396.288 288.95 397.526 288.288C398.083 287.981 398.563 287.722 398.966 287.51C399.312 287.338 399.485 287.251 399.514 287.251C399.542 287.251 399.37 287.366 399.082 287.539C398.717 287.77 398.266 288.048 397.728 288.374C396.547 289.123 394.819 290.16 392.717 291.398L392.573 291.485L392.458 291.312C391.882 290.304 391.248 289.238 390.557 288.086C390.23 287.51 389.894 286.915 389.549 286.301C389.357 285.994 389.174 285.686 389.002 285.379L388.742 284.918L388.598 284.688L388.541 284.573L388.483 284.515V284.486V284.458H388.454C388.397 284.717 388.57 284.083 388.541 284.141C391.046 282.701 393.408 281.347 395.453 280.195L395.626 280.109L395.712 280.253C396.893 282.384 397.872 284.141 398.534 285.35C398.822 285.907 399.072 286.378 399.283 286.762C399.456 287.078 399.542 287.251 399.514 287.251V287.251Z" fill="#E0E0E0"/>
<path d="M139.19 97.3152L130.838 97.344L130.608 55.7856L138.989 55.728L139.19 97.3152Z" fill="#E0E0E0"/>
<path d="M80.0064 78.7968L58.3488 78.912L58.2336 55.9584L79.8624 55.8432L80.0064 78.7968Z" fill="#EBEBEB"/>
<path d="M101.52 78.6816L79.8912 78.7968L79.776 55.8432L101.405 55.728L101.52 78.6816Z" fill="#F5F5F5"/>
<path d="M58.2624 61.8912C72.6336 61.632 87.0624 61.5456 101.434 61.632C101.722 61.632 101.75 62.0928 101.434 62.0928C87.0624 62.3232 72.6336 62.4096 58.2624 62.2944C58.0032 62.2944 58.0032 61.8912 58.2624 61.8912V61.8912Z" fill="#E0E0E0"/>
<path d="M84.1536 97.1136L44.8416 97.3152L44.7264 78.624L84.0672 78.4224L84.1536 97.1136Z" fill="#EBEBEB"/>
<path d="M123.293 96.912L83.9808 97.1136L83.8656 78.4224L123.178 78.192L123.293 96.912Z" fill="#F5F5F5"/>
<path d="M44.7552 83.4336C70.8768 82.8576 97.0848 82.8288 123.206 82.9728C123.494 82.9728 123.494 83.4336 123.206 83.4336C97.0848 83.8656 70.8768 84.1248 44.7552 83.8368C44.5248 83.808 44.5248 83.4336 44.7552 83.4336V83.4336Z" fill="#E0E0E0"/>
<path d="M182.39 104.026H30.0672V97.3152H182.39V104.026Z" fill="#E0E0E0"/>
<path d="M61.1712 123.408H55.008V100.541H61.1712V123.408Z" fill="#E0E0E0"/>
<path d="M153.475 123.408H147.312V100.541H153.475V123.408Z" fill="#E0E0E0"/>
<path d="M147.427 97.4016L139.075 97.4592L138.787 40.2624L147.139 40.2336L147.427 97.4016Z" fill="#EBEBEB"/>
<path d="M160.445 97.2L147.456 97.2864L147.197 50.9472L160.186 50.8608L160.445 97.2Z" fill="#F5F5F5"/>
<path d="M160.099 59.7888C160.099 59.9328 157.19 60.0192 153.619 60.0192C150.019 60.0192 147.11 59.9328 147.11 59.7888C147.11 59.6736 150.019 59.5872 153.619 59.5872C157.19 59.5872 160.099 59.6736 160.099 59.7888Z" fill="#E0E0E0"/>
<path d="M160.099 57.8592C160.099 57.9744 157.19 58.0896 153.619 58.0896C150.019 58.0896 147.11 57.9744 147.11 57.8592C147.11 57.7152 150.019 57.6288 153.619 57.6288C157.19 57.6288 160.099 57.7152 160.099 57.8592Z" fill="#E0E0E0"/>
<path d="M160.099 90.2304C160.099 90.3744 157.19 90.4608 153.619 90.4608C150.019 90.4608 147.11 90.3744 147.11 90.2304C147.11 90.1152 150.019 90.0288 153.619 90.0288C157.19 90.0288 160.099 90.1152 160.099 90.2304Z" fill="#E0E0E0"/>
<path d="M160.099 88.3008C160.099 88.416 157.19 88.5312 153.619 88.5312C150.019 88.5312 147.11 88.416 147.11 88.3008C147.11 88.1568 150.019 88.0704 153.619 88.0704C157.19 88.0704 160.099 88.1568 160.099 88.3008Z" fill="#E0E0E0"/>
<path d="M153.821 84.0384C153.706 84.0384 153.59 79.3728 153.59 73.6128C153.59 67.824 153.706 63.1584 153.821 63.1584C153.936 63.1584 154.051 67.824 154.051 73.6128C154.051 79.3728 153.936 84.0384 153.821 84.0384Z" fill="#E0E0E0"/>
<path d="M174.384 97.2288H160.243V62.2368H174.384V97.2288Z" fill="#EBEBEB"/>
<path d="M167.702 88.1568C165.859 88.1568 164.563 86.832 164.563 85.0176C164.563 84.0096 164.938 83.1744 165.686 82.656L166.003 83.088C165.37 83.5488 165.082 84.24 165.082 85.0176C165.082 86.4864 166.147 87.552 167.702 87.552C169.286 87.552 170.323 86.4864 170.323 85.0176C170.323 84.24 170.035 83.5488 169.402 83.088L169.718 82.656C170.467 83.1744 170.87 84.0096 170.87 85.0176C170.87 86.832 169.546 88.1568 167.702 88.1568Z" fill="#FAFAFA"/>
<path d="M170.064 81.792L169.603 81.504C170.006 81.0432 170.352 80.1792 170.352 79.2576C170.352 77.9616 169.862 77.4432 169.171 77.4432C167.357 77.4432 168.71 81.5616 166.262 81.5616C165.312 81.5616 164.563 80.784 164.563 79.2C164.563 78.4224 164.794 77.5584 165.168 77.0688L165.629 77.328C165.254 77.8752 165.082 78.5376 165.082 79.2C165.082 80.4384 165.571 80.9568 166.234 80.9568C168.106 80.9568 166.781 76.8384 169.171 76.8384C170.179 76.8384 170.87 77.7024 170.87 79.2864C170.87 80.3232 170.525 81.3024 170.064 81.792V81.792Z" fill="#FAFAFA"/>
<path d="M170.064 76.0896L169.603 75.8016C170.006 75.3408 170.352 74.5056 170.352 73.584C170.352 72.2592 169.862 71.7408 169.171 71.7408C167.357 71.7408 168.71 75.8592 166.262 75.8592C165.312 75.8592 164.563 75.0816 164.563 73.4976C164.563 72.72 164.794 71.856 165.168 71.3664L165.629 71.6544C165.254 72.1728 165.082 72.8352 165.082 73.5264C165.082 74.736 165.571 75.2544 166.234 75.2544C168.106 75.2544 166.781 71.136 169.171 71.136C170.179 71.136 170.87 72 170.87 73.584C170.87 74.6208 170.525 75.6 170.064 76.0896V76.0896Z" fill="#FAFAFA"/>
<path d="M145.238 49.9968C145.238 51.3216 144.144 52.3872 142.819 52.3872C141.494 52.3872 140.429 51.3216 140.429 49.9968C140.429 48.672 141.494 47.5776 142.819 47.5776C144.144 47.5776 145.238 48.672 145.238 49.9968Z" fill="#E0E0E0"/>
<path d="M143.568 90.6048H142.099V56.592H143.568V90.6048Z" fill="#E0E0E0"/>
<path d="M331.315 256.81C331.229 256.723 334.051 253.757 337.594 250.214C341.136 246.672 344.102 243.849 344.189 243.936C344.275 244.022 341.482 246.989 337.91 250.531C334.368 254.074 331.402 256.896 331.315 256.81Z" fill="#E0E0E0"/>
<path d="M344.189 256.81C344.102 256.896 341.136 254.074 337.594 250.531C334.051 246.989 331.229 244.022 331.315 243.936C331.402 243.849 334.368 246.672 337.91 250.214C341.482 253.757 344.275 256.723 344.189 256.81Z" fill="#E0E0E0"/>
<path d="M213.638 187.027C213.552 186.941 216.374 183.974 219.917 180.432C223.488 176.89 226.426 174.067 226.512 174.154C226.598 174.24 223.805 177.206 220.234 180.749C216.691 184.32 213.725 187.114 213.638 187.027Z" fill="#E0E0E0"/>
<path d="M226.512 187.027C226.426 187.114 223.459 184.32 219.917 180.749C216.374 177.206 213.552 174.24 213.638 174.154C213.725 174.067 216.691 176.89 220.234 180.432C223.805 183.974 226.598 186.941 226.512 187.027Z" fill="#E0E0E0"/>
<path d="M196.013 74.4192C195.898 74.4192 195.494 70.9632 195.12 66.6432C194.746 62.3232 194.515 58.8384 194.659 58.8384C194.774 58.8096 195.178 62.2944 195.552 66.6144C195.926 70.9056 196.128 74.4192 196.013 74.4192Z" fill="#E0E0E0"/>
<path d="M203.126 65.952C203.155 66.0672 199.67 66.4704 195.35 66.8448C191.03 67.2192 187.546 67.4208 187.546 67.3056C187.517 67.1904 191.002 66.7872 195.322 66.4128C199.613 66.0384 203.126 65.808 203.126 65.952Z" fill="#E0E0E0"/>
<path d="M123.869 159.869C123.869 159.869 123.811 159.792 123.696 159.638C123.581 159.446 123.446 159.216 123.293 158.947C122.89 158.294 122.362 157.43 121.709 156.355C120.384 154.08 118.541 150.941 116.294 147.168L116.582 147.226C112.838 149.386 108.461 151.949 103.795 154.656C103.766 154.714 103.939 154.08 103.853 154.339V154.368H103.882V154.397L103.939 154.454L103.997 154.57L104.112 154.8L104.371 155.232L104.861 156.096C105.206 156.672 105.542 157.238 105.869 157.795C106.502 158.928 107.136 160.032 107.77 161.107C109.008 163.267 110.16 165.312 111.226 167.184L110.966 167.098C114.768 164.938 117.965 163.152 120.24 161.856C121.354 161.242 122.237 160.752 122.89 160.387C123.178 160.234 123.418 160.109 123.61 160.013C123.763 159.917 123.85 159.869 123.869 159.869C123.898 159.869 123.581 160.07 123.005 160.416C122.371 160.8 121.517 161.318 120.442 161.971C118.166 163.296 114.97 165.197 111.168 167.443L110.995 167.53L110.88 167.357C109.814 165.514 108.634 163.469 107.395 161.338C106.762 160.262 106.118 159.158 105.466 158.026C105.139 157.469 104.813 156.902 104.486 156.326L103.968 155.434L103.738 155.002L103.594 154.8L103.536 154.685L103.507 154.627L103.478 154.598V154.57C103.392 154.858 103.565 154.195 103.565 154.253C108.259 151.574 112.637 149.04 116.381 146.909L116.554 146.794L116.64 146.966C118.829 150.826 120.643 154.051 121.939 156.355C122.554 157.45 123.043 158.323 123.408 158.976C123.725 159.552 123.898 159.869 123.869 159.869Z" fill="#E0E0E0"/>
<path d="M406.858 243.072C406.829 243.072 406.742 242.784 406.454 242.323C406.195 241.862 405.648 241.229 404.784 240.883C403.92 240.538 402.653 240.538 401.645 241.258C400.637 241.949 399.974 243.389 400.349 244.771C400.694 246.154 401.962 247.104 403.2 247.19C404.438 247.334 405.533 246.73 406.109 245.981C406.714 245.261 406.858 244.454 406.886 243.907C406.886 243.389 406.829 243.072 406.858 243.072C406.886 243.072 407.03 243.36 407.059 243.907C407.088 244.454 406.973 245.347 406.368 246.182C405.763 247.018 404.554 247.738 403.171 247.594C401.789 247.507 400.32 246.47 399.917 244.886C399.485 243.302 400.262 241.661 401.414 240.912C402.566 240.134 403.978 240.163 404.899 240.595C405.85 241.027 406.368 241.718 406.627 242.237C406.858 242.755 406.886 243.072 406.858 243.072V243.072Z" fill="#E0E0E0"/>
<path d="M245.347 37.4112C245.318 37.44 245.232 37.1232 244.973 36.6624C244.685 36.2304 244.166 35.5968 243.274 35.2512C242.41 34.8768 241.171 34.9056 240.134 35.6256C239.126 36.288 238.464 37.728 238.838 39.1104C239.213 40.5216 240.48 41.4432 241.69 41.5584C242.928 41.6736 244.022 41.0688 244.598 40.3488C245.203 39.6 245.376 38.7936 245.376 38.2752C245.405 37.728 245.318 37.44 245.347 37.4112C245.376 37.4112 245.52 37.6992 245.549 38.2752C245.578 38.8224 245.491 39.7152 244.858 40.5504C244.253 41.3856 243.043 42.0768 241.661 41.9616C240.278 41.8752 238.81 40.8096 238.406 39.2256C237.974 37.6704 238.752 36.0288 239.904 35.28C241.056 34.4736 242.467 34.5312 243.389 34.9632C244.339 35.3664 244.886 36.0864 245.117 36.576C245.347 37.0944 245.376 37.4112 245.347 37.4112V37.4112Z" fill="#E0E0E0"/>
<path d="M84.7008 136.31C84.6432 136.31 84.5856 136.022 84.2976 135.562C84.0096 135.101 83.4912 134.467 82.5984 134.122C81.7344 133.776 80.496 133.776 79.488 134.496C78.4512 135.187 77.8176 136.627 78.192 138.01C78.5376 139.392 79.8048 140.342 81.0144 140.429C82.2528 140.573 83.3472 139.968 83.9232 139.219C84.528 138.499 84.7008 137.693 84.7008 137.174C84.7296 136.627 84.6432 136.31 84.7008 136.31C84.7008 136.31 84.8448 136.598 84.8736 137.146C84.9312 137.722 84.816 138.586 84.1824 139.421C83.5776 140.256 82.3968 140.976 80.9856 140.861C79.6032 140.774 78.1344 139.709 77.76 138.125C77.328 136.541 78.0768 134.899 79.2288 134.15C80.4096 133.373 81.792 133.402 82.7136 133.834C83.6928 134.266 84.2112 134.986 84.4416 135.475C84.7008 135.994 84.7008 136.31 84.7008 136.31V136.31Z" fill="#E0E0E0"/>
<path d="M391.997 122.486C391.968 122.515 391.824 121.853 391.248 120.845C390.701 119.866 389.549 118.483 387.648 117.706C386.698 117.302 385.546 117.072 384.365 117.187C383.155 117.274 381.888 117.677 380.794 118.454C380.218 118.829 379.699 119.318 379.267 119.866C378.835 120.413 378.461 121.046 378.202 121.709C377.626 123.091 377.539 124.675 377.914 126.173C378.317 127.67 379.181 129.024 380.333 129.917C380.909 130.406 381.542 130.752 382.176 131.011C382.838 131.299 383.53 131.472 384.192 131.53C385.546 131.674 386.842 131.357 387.936 130.867C389.03 130.378 389.894 129.629 390.557 128.822C391.824 127.21 392.141 125.453 392.141 124.301C392.17 123.149 391.968 122.515 391.997 122.486C392.016 122.486 392.064 122.64 392.141 122.947C392.227 123.264 392.314 123.696 392.342 124.301C392.371 125.482 392.112 127.296 390.787 129.024C390.125 129.859 389.232 130.666 388.08 131.213C386.957 131.76 385.574 132.077 384.163 131.933C383.443 131.875 382.723 131.702 382.032 131.414C381.341 131.155 380.65 130.752 380.045 130.262C378.835 129.312 377.914 127.872 377.482 126.288C377.078 124.675 377.194 123.005 377.798 121.565C378.058 120.845 378.461 120.154 378.95 119.578C379.411 119.002 379.958 118.512 380.534 118.109C381.715 117.274 383.069 116.899 384.336 116.813C385.603 116.726 386.784 116.986 387.763 117.389C389.75 118.253 390.874 119.722 391.421 120.758C391.68 121.306 391.824 121.738 391.91 122.026C391.987 122.333 392.016 122.486 391.997 122.486V122.486Z" fill="#E0E0E0"/>
<path d="M368.726 231.869C368.726 231.898 368.582 231.61 368.294 231.062C367.949 230.448 367.517 229.661 366.998 228.701C365.904 226.656 364.32 223.718 362.506 220.234L362.333 219.917H362.707C364.694 220.061 366.883 220.176 369.13 220.32C371.462 220.493 373.709 220.637 375.782 220.781L376.128 220.81L375.926 221.098C373.853 224.323 372.01 227.059 370.742 228.931C370.147 229.834 369.658 230.573 369.274 231.149C368.928 231.638 368.726 231.898 368.726 231.869C368.726 231.84 368.928 231.552 369.245 231.005C369.629 230.41 370.109 229.642 370.685 228.701C371.894 226.742 373.565 224.006 375.581 220.867L375.754 221.184C373.68 221.069 371.434 220.925 369.101 220.781C366.854 220.637 364.694 220.493 362.707 220.349L362.909 220.032C364.608 223.43 366.048 226.339 367.085 228.442C367.584 229.459 367.987 230.294 368.294 230.947C368.582 231.523 368.726 231.84 368.726 231.869V231.869Z" fill="#E0E0E0"/>
<path d="M308.477 68.7168C308.477 68.7456 308.333 68.4576 308.045 67.9104C307.699 67.296 307.267 66.5088 306.749 65.5488C305.654 63.504 304.07 60.5664 302.256 57.0816L302.083 56.7648H302.458C304.474 56.9088 306.634 57.024 308.88 57.168C311.213 57.3408 313.459 57.4848 315.533 57.6288H315.878L315.677 57.9456C313.603 61.1712 311.76 63.9072 310.493 65.7792C309.898 66.6816 309.408 67.4208 309.024 67.9968C308.678 68.4864 308.477 68.7456 308.477 68.7168C308.477 68.688 308.678 68.4 308.995 67.8528C309.379 67.2576 309.859 66.4896 310.435 65.5488C311.645 63.5904 313.315 60.8544 315.331 57.7152L315.504 58.032C313.43 57.9168 311.184 57.7728 308.851 57.6288C306.605 57.4848 304.445 57.3408 302.458 57.1968L302.659 56.88C304.358 60.2784 305.798 63.1872 306.835 65.2896C307.334 66.3072 307.738 67.1424 308.045 67.7952C308.333 68.3712 308.477 68.688 308.477 68.7168V68.7168Z" fill="#E0E0E0"/>
<path d="M203.99 261.418C203.962 261.446 204.134 261.158 204.48 260.64C204.864 260.064 205.354 259.315 205.949 258.394C207.245 256.464 209.088 253.67 211.277 250.416L211.45 250.186L211.622 250.445C212.89 252.317 214.301 254.362 215.741 256.522C216.864 258.192 217.958 259.805 218.966 261.302L219.197 261.648H218.765C214.445 261.619 210.701 261.562 208.08 261.533C206.832 261.494 205.814 261.475 205.027 261.475C204.336 261.446 203.962 261.446 203.99 261.418C204.019 261.418 204.422 261.418 205.171 261.389C205.958 261.37 206.995 261.35 208.282 261.331C210.902 261.274 214.56 261.216 218.765 261.216L218.592 261.562C217.584 260.064 216.49 258.451 215.366 256.781C213.926 254.621 212.544 252.547 211.277 250.675H211.622C209.462 253.786 207.562 256.435 206.208 258.365C205.555 259.267 205.018 260.016 204.595 260.611C204.221 261.13 204.019 261.418 203.99 261.418V261.418Z" fill="#E0E0E0"/>
<path d="M338.976 373.766H230.774V311.069C230.774 281.174 254.995 256.954 284.89 256.954C314.755 256.954 338.976 281.174 338.976 311.069V373.766Z" fill="#455A64"/>
<path d="M169.949 347.558L168.998 360.662L157.997 363.802L149.011 361.008C146.995 360.778 145.498 359.078 145.469 357.034L145.44 352.051C142.195 357.677 140.15 360.883 139.306 361.67C138.461 362.438 137.491 362.458 136.397 361.728L142.445 347.213L147.888 343.354L169.949 347.558Z" fill="#FFBE9D"/>
<path d="M245.693 246.787C243.014 246.01 241.69 242.928 241.43 240.134C241.2 237.341 241.661 234.461 240.883 231.754C240.365 229.853 239.213 228.067 239.069 226.109C238.896 223.949 239.933 221.875 239.99 219.744C240.077 216.749 238.262 213.955 238.234 210.96C238.176 206.813 238.896 199.958 243.043 200.189C247.19 200.419 253.843 207.706 253.325 211.795" fill="#263238"/>
<path d="M284.89 212.458L284.803 216.605L283.968 278.582C283.853 285.782 277.603 291.456 269.885 291.283C262.109 291.11 255.802 285.091 255.773 277.805C255.754 272.717 255.686 267.494 255.571 262.138C249.024 261.062 245.069 256.243 243.706 247.68C242.698 241.315 243.014 230.832 243.562 222.278C244.051 214.589 250.819 208.858 258.509 209.664L284.89 212.458Z" fill="#FFBE9D"/>
<path d="M247.882 228.096C248.774 228.154 249.494 228.874 249.466 229.766C249.437 230.63 248.688 231.293 247.766 231.235C246.874 231.178 246.154 230.458 246.182 229.565C246.211 228.701 246.96 228.038 247.882 228.096Z" fill="#263238"/>
<path d="M246.442 226.829C246.989 226.426 247.91 226.022 249.005 225.994C250.128 225.994 251.078 226.397 251.626 226.8C252.202 227.232 252.403 227.606 252.317 227.693C252.115 227.923 250.819 227.002 249.034 227.03C247.277 227.03 246.038 227.952 245.837 227.722C245.722 227.635 245.894 227.261 246.442 226.829Z" fill="#263238"/>
<path d="M265.594 228.096C266.515 228.154 267.206 228.874 267.178 229.766C267.149 230.63 266.4 231.293 265.478 231.235C264.586 231.178 263.866 230.458 263.894 229.565C263.923 228.701 264.701 228.038 265.594 228.096Z" fill="#263238"/>
<path d="M263.866 227.174C264.384 226.742 265.306 226.339 266.429 226.339C267.523 226.339 268.474 226.742 269.021 227.146C269.597 227.549 269.798 227.952 269.712 228.038C269.51 228.24 268.214 227.347 266.458 227.376C264.672 227.347 263.434 228.269 263.232 228.067C263.117 227.981 263.318 227.578 263.866 227.174Z" fill="#263238"/>
<path d="M253.901 241.2C253.67 241.171 253.411 241.171 253.123 241.085C252.835 240.998 252.49 240.768 252.374 240.422C252.144 239.76 252.432 239.155 252.605 238.637C253.008 237.542 253.44 236.39 253.901 235.181C255.744 230.285 257.414 226.368 257.616 226.454C257.818 226.512 256.464 230.544 254.621 235.44C254.141 236.65 253.69 237.802 253.267 238.896C253.066 239.414 252.864 239.904 252.979 240.221C253.037 240.538 253.469 240.624 253.93 240.682C255.715 240.912 256.81 241.085 256.81 241.2C256.81 241.286 255.686 241.286 253.901 241.2V241.2Z" fill="#263238"/>
<path d="M255.571 262.138C261.331 262.522 267.062 260.995 272.765 257.558C269.981 263.434 264.307 265.978 255.744 265.19L255.571 262.138Z" fill="#EB996E"/>
<path d="M257.558 245.462C258.192 244.627 259.315 244.166 260.41 244.282C261.187 244.368 261.965 244.742 262.426 245.347C262.886 245.981 263.002 246.874 262.57 247.478C262.08 248.141 261.101 248.285 260.237 248.054C259.402 247.824 258.682 247.248 257.99 246.701C257.789 246.557 257.587 246.384 257.472 246.182C257.357 245.981 257.328 245.693 257.472 245.52" fill="#EB996E"/>
<path d="M262.282 243.677C262.224 244.483 261.792 245.606 260.784 246.442C259.776 247.277 258.538 247.536 257.702 247.507C256.838 247.478 256.349 247.219 256.378 247.104C256.378 246.845 258.422 247.046 260.064 245.693C261.734 244.339 261.734 242.41 262.022 242.41C262.138 242.41 262.368 242.899 262.282 243.677V243.677Z" fill="#263238"/>
<path d="M263.837 220.205C264.586 219.917 265.738 219.715 266.976 219.83C268.243 219.974 269.309 220.435 269.971 220.896C270.662 221.357 270.95 221.818 270.835 222.019C270.547 222.451 268.877 221.846 266.803 221.616C264.701 221.386 262.944 221.616 262.771 221.126C262.685 220.896 263.088 220.522 263.837 220.205Z" fill="#263238"/>
<path d="M247.018 221.587C247.536 221.184 248.4 220.81 249.408 220.781C250.416 220.752 251.309 221.069 251.856 221.443C252.403 221.818 252.605 222.221 252.461 222.422C252.173 222.854 250.934 222.509 249.466 222.566C247.997 222.595 246.787 222.998 246.47 222.624C246.326 222.422 246.499 221.99 247.018 221.587Z" fill="#263238"/>
<path d="M289.613 208.512C292.291 201.254 303.379 190.339 311.933 195.206C321.293 200.534 317.952 204.221 321.35 206.669C322.157 207.274 325.958 206.006 326.477 206.842C327.888 209.088 326.707 211.968 325.498 214.33C325.786 214.301 326.074 214.214 326.362 214.099C327.398 213.696 328.55 214.502 328.493 215.626C328.32 218.448 327.254 221.472 325.584 223.546C326.189 223.69 326.794 223.718 327.37 223.603C328.205 223.488 328.867 224.266 328.608 225.072C327.658 227.808 325.037 229.939 322.157 230.544C318.586 231.293 314.813 229.997 311.904 227.808C308.995 225.619 306.806 222.595 304.848 219.542C303.696 217.757 302.544 215.885 300.845 214.646C299.146 213.408 296.669 212.918 294.912 214.099" fill="#263238"/>
<path d="M294.941 213.811C294.883 213.811 294.941 213.696 294.912 213.494C294.912 213.293 294.826 213.005 294.682 212.63C294.451 211.939 293.933 210.989 293.299 210.01C292.666 209.03 292.003 208.195 291.485 207.648C290.966 207.101 290.563 206.813 290.621 206.755C290.621 206.698 291.11 206.899 291.715 207.418C292.291 207.936 293.04 208.742 293.674 209.75C294.336 210.787 294.797 211.766 294.998 212.544C295.114 212.918 295.142 213.264 295.085 213.494C295.056 213.725 294.941 213.84 294.941 213.811V213.811Z" fill="#80FFDB"/>
<path d="M316.627 233.712C316.627 233.731 316.522 233.808 316.31 233.942C316.099 234.096 315.773 234.269 315.331 234.461C314.438 234.864 313.027 235.181 311.27 235.008C309.571 234.806 307.469 234.029 305.914 232.272C305.136 231.379 304.589 230.256 304.214 229.075C303.84 227.866 303.667 226.57 303.581 225.245C303.437 222.624 303.523 220.118 303.062 217.93C302.832 216.835 302.486 215.827 301.997 214.963C301.507 214.128 300.874 213.437 300.211 212.947C298.858 211.91 297.446 211.622 296.525 211.709C295.574 211.766 295.085 212.054 295.085 211.997C295.085 211.978 295.2 211.92 295.43 211.824C295.661 211.709 296.006 211.594 296.496 211.507C297.475 211.392 298.973 211.622 300.384 212.688C301.104 213.178 301.795 213.898 302.314 214.79C302.832 215.683 303.206 216.72 303.466 217.843C303.955 220.118 303.869 222.653 304.042 225.216C304.128 226.512 304.301 227.779 304.646 228.931C304.992 230.083 305.51 231.149 306.23 231.984C307.699 233.683 309.686 234.461 311.328 234.691C312.998 234.922 314.381 234.634 315.274 234.317C316.166 233.971 316.598 233.654 316.627 233.712V233.712Z" fill="#263238"/>
<path d="M325.238 198.835C325.267 198.835 325.354 198.979 325.498 199.325C325.613 199.642 325.786 200.16 325.814 200.851C325.872 201.542 325.786 202.406 325.411 203.299C325.066 204.221 324.374 205.2 323.309 205.834C322.243 206.496 320.803 206.755 319.363 206.467C317.952 206.208 316.454 205.286 315.677 203.818C314.842 202.378 314.525 200.65 314.179 198.979C313.862 197.28 313.517 195.466 312.394 194.083C311.818 193.421 311.04 192.931 310.234 192.73C309.398 192.499 308.534 192.528 307.699 192.672C306.029 192.989 304.531 193.766 303.178 194.602C300.47 196.272 298.224 198.086 296.496 199.728C294.739 201.37 293.443 202.867 292.608 203.904C292.205 204.403 291.878 204.806 291.629 205.114C291.427 205.402 291.283 205.546 291.283 205.546C291.264 205.526 291.36 205.373 291.571 205.085C291.744 204.768 292.061 204.336 292.464 203.789C293.27 202.723 294.538 201.197 296.266 199.498C297.994 197.798 300.24 195.955 302.976 194.256C304.33 193.392 305.856 192.586 307.613 192.24C308.477 192.096 309.427 192.038 310.349 192.298C311.242 192.528 312.106 193.046 312.71 193.795C313.978 195.322 314.294 197.194 314.611 198.893C314.957 200.592 315.245 202.262 316.022 203.587C316.771 204.998 318.096 205.834 319.45 206.093C320.774 206.381 322.128 206.15 323.136 205.574C324.144 204.97 324.806 204.077 325.181 203.213C325.555 202.349 325.67 201.514 325.642 200.851C325.613 199.526 325.181 198.864 325.238 198.835V198.835Z" fill="#263238"/>
<path d="M292.781 195.782C292.838 195.754 293.299 196.243 293.731 197.222C294.163 198.173 294.509 199.699 294.25 201.341C293.962 202.954 293.126 204.278 292.378 205.056C291.658 205.834 291.053 206.122 291.024 206.064C290.966 206.006 291.514 205.632 292.147 204.826C292.81 204.048 293.53 202.781 293.789 201.254C294.048 199.728 293.789 198.288 293.443 197.338C293.098 196.358 292.723 195.811 292.781 195.782V195.782Z" fill="#263238"/>
<path d="M295.2 227.779C294.077 230.89 293.674 236.592 292.694 239.76C291.514 243.59 286.963 253.181 284.314 252.374C283.046 251.971 283.046 251.971 282.182 250.445C281.693 249.581 281.146 248.342 280.685 247.45C279.533 245.146 279.158 242.496 279.648 239.962C279.994 238.147 280.771 236.419 280.829 234.576C280.858 232.387 279.878 230.314 279.245 228.211C278.64 226.109 278.525 223.574 279.994 221.962C275.299 221.04 271.21 217.642 269.194 213.322C268.656 213.763 268.138 214.234 267.638 214.733C266.285 216.086 265.046 217.555 263.52 218.678C261.994 219.83 260.064 220.608 258.192 220.234C256.32 219.888 254.65 218.131 254.88 216.23C251.568 218.995 246.355 218.909 242.928 216.346C239.472 213.754 237.888 209.059 238.723 204.826C239.587 200.621 242.64 196.992 246.528 195.12C250.387 193.248 254.966 193.018 259.114 194.141C263.261 195.264 267.005 197.654 270.086 200.65C271.008 201.542 271.901 202.493 272.995 203.126C275.904 201.715 279.245 201.226 282.413 201.859C287.626 202.896 292.118 206.784 294.077 211.738C296.006 216.662 297.245 222.163 295.2 227.779V227.779Z" fill="#263238"/>
<path d="M295.862 223.747C295.862 223.747 295.795 223.843 295.661 224.035C295.546 224.208 295.315 224.438 294.941 224.669C294.566 224.87 294.077 225.072 293.472 225.13C292.867 225.216 292.176 225.13 291.456 224.784C291.11 224.611 290.794 224.381 290.506 224.035C290.218 223.718 290.016 223.344 289.814 222.941C289.44 222.134 289.21 221.213 288.662 220.493C288.115 219.744 287.165 219.312 286.157 219.139C285.149 218.995 284.054 219.024 282.902 219.024C281.779 218.995 280.656 218.822 279.619 218.563C278.582 218.275 277.603 217.872 276.739 217.411C274.982 216.49 273.6 215.338 272.621 214.186C271.642 213.062 271.008 212.026 270.662 211.277C270.49 210.902 270.374 210.586 270.317 210.384C270.24 210.173 270.202 210.067 270.202 210.067C270.317 210.01 270.864 211.824 272.851 213.984C273.83 215.05 275.213 216.173 276.912 217.066C277.776 217.469 278.726 217.872 279.734 218.131C280.742 218.39 281.808 218.534 282.931 218.563C284.026 218.592 285.149 218.534 286.243 218.707C287.309 218.88 288.374 219.37 288.979 220.234C289.584 221.069 289.814 222.019 290.16 222.768C290.333 223.171 290.534 223.517 290.765 223.834C291.024 224.122 291.312 224.323 291.6 224.496C292.896 225.158 294.163 224.87 294.854 224.496C295.574 224.122 295.805 223.69 295.862 223.747V223.747Z" fill="#455A64"/>
<path d="M293.846 228.96C293.875 228.989 293.702 229.19 293.328 229.507C292.925 229.795 292.32 230.17 291.485 230.4C290.65 230.659 289.584 230.774 288.432 230.515C287.28 230.256 286.099 229.651 285.178 228.643C284.285 227.635 283.766 226.454 283.248 225.475C282.73 224.496 282.154 223.69 281.52 223.142C280.915 222.566 280.282 222.278 279.85 222.163C279.389 222.048 279.13 222.077 279.13 222.019C279.13 221.99 279.389 221.933 279.878 221.99C280.368 222.048 281.059 222.336 281.75 222.883C282.413 223.43 283.075 224.294 283.594 225.302C284.17 226.282 284.688 227.405 285.523 228.326C286.358 229.277 287.482 229.853 288.518 230.112C289.584 230.371 290.592 230.314 291.398 230.112C293.011 229.68 293.818 228.902 293.846 228.96V228.96Z" fill="#455A64"/>
<path d="M327.917 213.898C327.917 213.898 327.888 214.07 327.773 214.387C327.686 214.704 327.456 215.165 326.995 215.626C326.563 216.086 325.901 216.547 325.066 216.864C324.202 217.152 323.107 217.267 322.013 216.979C319.738 216.432 317.606 214.387 316.282 211.709C314.899 209.059 314.15 205.805 312.163 203.069C311.184 201.715 309.859 200.678 308.39 200.102C306.922 199.526 305.366 199.354 303.926 199.469C300.989 199.67 298.598 201.082 296.986 202.55C295.315 204.019 294.336 205.546 293.702 206.611C293.069 207.706 292.81 208.339 292.781 208.339C292.762 208.32 292.81 208.157 292.925 207.85C293.069 207.533 293.27 207.101 293.558 206.525C294.134 205.43 295.114 203.846 296.755 202.291C298.397 200.765 300.845 199.267 303.898 199.037C305.395 198.922 307.008 199.094 308.563 199.699C310.09 200.304 311.501 201.398 312.538 202.81C314.611 205.632 315.331 208.915 316.656 211.507C317.923 214.128 319.939 216.115 322.07 216.662C323.136 216.979 324.144 216.893 324.979 216.634C325.814 216.346 326.448 215.942 326.88 215.51C327.773 214.618 327.859 213.869 327.917 213.898V213.898Z" fill="#455A64"/>
<path d="M327.571 219.974C327.59 219.994 327.485 220.118 327.254 220.349C327.024 220.579 326.707 220.896 326.218 221.27C325.728 221.616 325.094 222.019 324.259 222.336C323.453 222.653 322.474 222.883 321.35 222.768C319.162 222.538 316.714 221.126 314.986 218.794C314.122 217.613 313.488 216.23 312.97 214.762C312.451 213.264 312.048 211.709 311.501 210.182C310.925 208.656 310.234 207.216 309.254 206.064C308.275 204.883 307.008 204.106 305.654 203.731C302.947 202.982 300.326 203.702 298.454 204.653C296.554 205.632 295.229 206.784 294.336 207.562C293.914 207.946 293.568 208.262 293.299 208.512C293.069 208.723 292.954 208.829 292.954 208.829C292.934 208.81 293.03 208.675 293.242 208.426C293.472 208.195 293.789 207.85 294.221 207.446C295.085 206.611 296.381 205.402 298.31 204.365C300.211 203.357 302.918 202.579 305.77 203.328C307.181 203.702 308.563 204.538 309.6 205.776C310.637 206.986 311.357 208.483 311.904 210.038C312.48 211.594 312.883 213.149 313.373 214.618C313.891 216.058 314.496 217.411 315.331 218.534C316.973 220.81 319.306 222.192 321.379 222.451C322.445 222.595 323.395 222.394 324.173 222.106C324.979 221.818 325.613 221.443 326.102 221.126C327.082 220.435 327.542 219.946 327.571 219.974V219.974Z" fill="#455A64"/>
<path fill-rule="evenodd" clip-rule="evenodd" d="M228.067 360.086C221.962 371.29 208.858 376.704 196.646 373.075L163.555 365.213L170.525 346.147L203.184 350.554L222.336 294.365C224.784 287.222 229.997 281.318 236.851 278.179C242.41 275.645 248.947 274.118 255.571 273.312C256.262 275.616 257.904 277.546 260.122 278.554C266.083 281.232 273.11 280.742 278.726 276.998L284.227 273.312C294.192 273.85 302.842 277.104 310.176 283.075C310.214 283.075 310.253 283.075 310.291 283.075C315.59 286.762 319.43 292.502 321.811 300.298C323.971 307.354 330.163 331.258 334.714 349.056C334.81 349.478 334.906 349.891 335.002 350.294C337.738 364.118 326.218 376.704 312.163 375.984L303.034 375.523L306.317 385.459H232.906L235.786 352.224L234.317 348.566L228.067 360.086ZM305.078 352.742L300.442 334.541C299.174 338.861 297.494 345.024 295.402 353.03L305.078 352.742Z" fill="#80FFDB"/>
<path d="M320.342 376.186C320.246 376.186 320.122 376.186 319.968 376.186C319.699 376.186 319.325 376.195 318.845 376.214C317.866 376.214 316.426 376.214 314.554 376.243C310.781 376.243 305.28 376.272 298.368 376.301C284.544 376.33 264.989 376.358 242.122 376.387H241.92V376.157C242.208 369.302 242.525 362.102 242.813 354.672L242.842 354.47H243.043C249.782 354.269 256.781 354.038 263.952 353.808C278.438 353.347 292.349 352.944 305.05 352.541L304.848 352.8C303.322 347.184 302.054 341.741 300.845 336.528C299.693 331.315 298.57 326.333 297.504 321.638C296.986 319.277 296.486 316.992 296.006 314.784C295.517 312.595 294.998 310.435 294.826 308.333C294.653 306.23 294.682 304.186 294.854 302.256C295.056 300.326 295.344 298.483 295.862 296.784C296.87 293.386 298.656 290.621 300.758 288.806C302.832 286.963 305.194 286.157 307.066 285.869C308.966 285.581 310.464 285.84 311.414 286.099C311.894 286.253 312.25 286.387 312.48 286.502C312.634 286.56 312.749 286.608 312.826 286.646C312.826 286.675 312.365 286.445 311.414 286.186C310.464 285.926 308.966 285.696 307.094 285.984C305.222 286.301 302.918 287.107 300.874 288.95C298.829 290.765 297.072 293.501 296.093 296.87C295.603 298.541 295.315 300.355 295.142 302.285C294.97 304.186 294.941 306.23 295.142 308.304C295.315 310.378 295.834 312.509 296.323 314.726C296.822 316.915 297.331 319.19 297.85 321.552C298.915 326.246 300.038 331.229 301.248 336.442C302.458 341.654 303.725 347.098 305.251 352.685L305.338 352.944L305.05 352.973C292.378 353.376 278.467 353.808 263.952 354.269C256.81 354.47 249.782 354.701 243.043 354.902L243.274 354.701C242.957 362.131 242.64 369.331 242.352 376.186L242.122 375.955C264.989 375.984 284.544 376.013 298.368 376.042C305.28 376.07 310.781 376.099 314.554 376.099C316.426 376.128 317.866 376.128 318.845 376.128C319.325 376.147 319.699 376.157 319.968 376.157C320.122 376.157 320.246 376.166 320.342 376.186V376.186Z" fill="#263238"/>
<path d="M238.406 299.693C238.426 299.693 238.435 299.866 238.435 300.211C238.435 300.557 238.493 301.104 238.435 301.766C238.378 303.091 238.09 305.05 237.427 307.354C236.794 309.658 235.728 312.336 234.547 315.274C233.395 318.182 232.07 321.437 231.408 324.979C230.688 328.55 230.89 332.035 231.35 335.146C231.84 338.256 232.618 340.992 233.338 343.267C234.058 345.542 234.72 347.357 235.152 348.624C235.363 349.219 235.536 349.699 235.67 350.064C235.766 350.41 235.814 350.582 235.814 350.582C235.795 350.602 235.718 350.448 235.584 350.122C235.43 349.738 235.229 349.258 234.979 348.682C234.49 347.443 233.798 345.629 233.021 343.354C232.272 341.078 231.466 338.342 230.947 335.203C230.429 332.093 230.227 328.522 230.947 324.893C231.638 321.293 232.992 318.038 234.173 315.101C235.382 312.192 236.448 309.542 237.11 307.267C237.802 304.992 238.147 303.062 238.262 301.738C238.349 300.413 238.349 299.693 238.406 299.693V299.693Z" fill="#263238"/>
<path d="M305.05 352.742C305.05 352.714 305.626 352.541 306.576 352.541C307.555 352.541 308.88 352.771 310.234 353.376C311.587 354.01 312.624 354.931 313.114 355.766C313.661 356.573 313.718 357.207 313.69 357.207C313.603 357.235 313.43 356.659 312.854 355.939C312.307 355.219 311.328 354.384 310.032 353.779C308.765 353.203 307.498 352.944 306.576 352.858C305.654 352.771 305.078 352.829 305.05 352.742V352.742Z" fill="#263238"/>
<path d="M298.598 276.566C298.598 276.538 299.088 276.71 299.952 277.085C300.413 277.258 300.931 277.488 301.536 277.747C302.17 278.054 302.861 278.39 303.61 278.755C304.358 279.13 305.165 279.59 306.029 280.08C306.893 280.57 307.786 281.146 308.736 281.75C310.579 283.018 312.538 284.544 314.41 286.358C318.096 290.016 320.486 294.192 321.523 297.418C321.811 298.224 322.042 298.944 322.186 299.606C322.358 300.269 322.502 300.816 322.56 301.306C322.704 302.227 322.762 302.746 322.733 302.746C322.704 302.746 322.589 302.256 322.387 301.334C322.301 300.874 322.128 300.326 321.955 299.664C321.782 299.03 321.523 298.31 321.235 297.533C320.112 294.365 317.722 290.275 314.093 286.675C312.25 284.89 310.32 283.392 308.506 282.096C307.584 281.491 306.691 280.915 305.856 280.397C304.992 279.907 304.214 279.418 303.466 279.043C302.717 278.659 302.045 278.304 301.45 277.978C300.854 277.709 300.336 277.469 299.894 277.258C299.03 276.826 298.57 276.595 298.598 276.566V276.566Z" fill="#263238"/>
<g opacity="0.3">
<path opacity="0.3" d="M300.528 334.253L295.43 352.454L295.373 353.059L289.296 353.002C288.874 351.85 288.624 350.218 288.547 348.106C288.47 346.013 290.861 334.234 295.718 312.768L300.528 334.253Z" fill="black"/>
</g>
<path d="M255.658 311.155C255.686 311.184 254.88 311.501 253.67 312.394C252.49 313.315 250.848 314.928 249.926 317.491C249.466 318.758 249.206 320.256 249.322 321.84C249.437 323.395 249.84 325.094 250.762 326.621C251.654 328.147 252.979 329.53 254.65 330.509C255.485 330.998 256.406 331.373 257.357 331.632C258.336 331.891 259.344 331.978 260.381 331.978C261.389 331.949 262.397 331.747 263.347 331.488C264.298 331.171 265.19 330.768 265.997 330.221C267.61 329.155 268.877 327.715 269.683 326.16C270.49 324.576 270.893 322.877 270.922 321.293C270.922 319.709 270.605 318.24 270.086 317.002C269.05 314.496 267.35 312.941 266.112 312.106C264.845 311.27 264.038 310.982 264.038 310.954C264.058 310.934 264.259 310.992 264.643 311.126C265.018 311.299 265.536 311.558 266.198 311.962C267.494 312.768 269.28 314.323 270.374 316.886C270.95 318.154 271.267 319.68 271.296 321.293C271.267 322.934 270.893 324.691 270.058 326.333C269.222 327.974 267.898 329.472 266.227 330.595C265.392 331.142 264.47 331.574 263.491 331.92C262.483 332.179 261.446 332.41 260.381 332.41C259.315 332.438 258.25 332.323 257.27 332.064C256.262 331.805 255.312 331.402 254.448 330.883C252.691 329.875 251.338 328.406 250.416 326.822C249.466 325.238 249.034 323.482 248.947 321.84C248.861 320.227 249.149 318.701 249.638 317.376C250.618 314.755 252.317 313.142 253.555 312.278C254.189 311.818 254.707 311.53 255.082 311.386C255.466 311.213 255.658 311.136 255.658 311.155V311.155Z" fill="white"/>
<path d="M260.093 309.168C260.237 309.168 260.323 312.739 260.323 317.117C260.323 321.494 260.237 325.037 260.093 325.037C259.978 325.037 259.891 321.494 259.891 317.117C259.891 312.739 259.978 309.168 260.093 309.168Z" fill="white"/>
<path d="M242.64 356.861L242.122 369.677L232.445 369.648L209.549 366.048C207.974 367.661 206.198 367.805 204.221 366.48L212.486 358.07L221.674 356.371L214.387 354.73C211.91 356.035 209.731 357.235 207.85 358.33C205.027 359.971 203.846 358.07 203.213 357.293C202.79 356.755 206.899 354.182 215.539 349.574L221.789 350.986C219.542 346.666 219.715 343.814 220.838 343.382C221.606 343.075 223.824 346.042 227.491 352.282L232.243 354.211L242.64 356.861Z" fill="#FFBE9D"/>
<path d="M210.384 364.176C210.758 363.658 211.306 363.082 211.997 362.592C212.746 362.074 213.696 361.814 214.646 361.642C218.39 361.008 221.472 360.634 221.501 360.806C221.53 361.008 218.506 361.699 214.762 362.362C213.84 362.506 213.005 362.707 212.371 363.139C211.709 363.542 211.162 364.032 210.787 364.493C210.01 365.414 209.635 366.106 209.549 366.048C209.462 366.019 209.664 365.27 210.384 364.176V364.176Z" fill="#EB996E"/>
<path d="M213.034 366.422C213.091 366.163 213.322 365.846 213.696 365.645C214.416 365.328 215.395 365.098 216.518 364.925C218.736 364.579 220.579 364.81 220.579 364.982C220.55 365.184 218.765 365.27 216.605 365.616C215.539 365.789 214.531 365.962 213.898 366.134C213.264 366.278 213.206 366.768 213.12 366.768C213.091 366.768 213.005 366.653 213.034 366.422Z" fill="#EB996E"/>
<path d="M231.61 353.952C231.581 354.009 230.746 353.75 229.334 353.318C227.923 352.886 225.994 352.339 223.834 351.792C221.731 351.274 219.83 350.784 218.275 350.409C216.835 350.035 215.971 349.747 216 349.69C216 349.632 216.893 349.805 218.333 350.093C219.773 350.381 221.76 350.813 223.92 351.36C226.109 351.907 228.038 352.512 229.421 353.001C230.803 353.52 231.638 353.894 231.61 353.952V353.952Z" fill="#EB996E"/>
<path d="M311.299 112.954C311.299 112.954 311.27 112.608 311.27 112.032C311.251 111.379 311.232 110.525 311.213 109.469C311.184 107.222 311.155 104.141 311.098 100.454L311.299 100.656C307.67 100.685 303.379 100.685 298.8 100.685C298.771 100.742 299.232 100.253 299.03 100.483V100.512V100.57V100.685V100.886V101.318V102.154C299.03 102.73 299.03 103.296 299.03 103.853C299.03 104.947 299.03 106.022 299.03 107.078C299.03 109.152 299.002 111.139 299.002 112.954L298.8 112.781C302.486 112.81 305.568 112.838 307.814 112.867C308.87 112.886 309.725 112.906 310.378 112.925C310.954 112.925 311.299 112.954 311.299 112.954C311.328 112.982 311.011 112.982 310.435 113.011C309.802 113.03 308.966 113.05 307.93 113.069C305.654 113.069 302.544 113.126 298.8 113.155H298.627V112.954C298.598 111.139 298.598 109.152 298.598 107.078C298.598 106.022 298.598 104.947 298.598 103.853C298.598 103.296 298.589 102.73 298.57 102.154V101.318V100.886V100.685V100.57V100.512V100.483C298.368 100.656 298.858 100.195 298.8 100.253C303.379 100.253 307.67 100.253 311.299 100.282H311.501V100.454C311.472 104.198 311.414 107.338 311.386 109.584C311.366 110.621 311.357 111.466 311.357 112.118C311.328 112.666 311.328 112.982 311.299 112.954V112.954Z" fill="#263238"/>
<path d="M311.299 100.598C311.386 100.685 308.678 103.536 305.222 106.963C301.795 110.39 298.915 113.098 298.829 113.011C298.742 112.925 301.478 110.074 304.906 106.646C308.362 103.219 311.213 100.512 311.299 100.598Z" fill="#263238"/>
<path d="M311.098 112.896C311.011 112.982 308.218 110.304 304.848 106.906C301.478 103.507 298.829 100.685 298.915 100.598C299.002 100.512 301.795 103.19 305.165 106.589C308.534 109.987 311.184 112.81 311.098 112.896Z" fill="#263238"/>
<path d="M385.286 185.674C385.258 185.645 385.488 185.386 385.949 184.896C386.467 184.378 387.11 183.734 387.878 182.966C389.549 181.354 391.853 179.136 394.387 176.688L394.474 176.63V176.976C391.882 174.586 389.578 172.397 387.907 170.813C387.139 170.064 386.486 169.43 385.949 168.912C385.488 168.451 385.258 168.192 385.286 168.163C385.315 168.134 385.574 168.365 386.064 168.768C386.621 169.267 387.302 169.872 388.109 170.582C389.837 172.109 392.198 174.24 394.762 176.63L394.934 176.803L394.762 176.947L394.704 177.005C392.141 179.453 389.808 181.642 388.109 183.197C387.302 183.926 386.621 184.541 386.064 185.04C385.574 185.472 385.315 185.674 385.286 185.674V185.674Z" fill="#263238"/>
<path d="M365.357 168.163C365.386 168.192 365.155 168.451 364.694 168.912C364.176 169.45 363.533 170.102 362.765 170.87C361.094 172.483 358.79 174.701 356.227 177.149L356.17 177.206V176.861C358.762 179.251 361.066 181.44 362.736 183.024C363.504 183.773 364.157 184.406 364.694 184.925C365.155 185.386 365.386 185.645 365.357 185.674C365.328 185.674 365.069 185.472 364.579 185.04C364.022 184.56 363.341 183.965 362.534 183.254C360.806 181.728 358.445 179.568 355.882 177.206L355.709 177.034L355.882 176.861L355.939 176.803C358.502 174.384 360.835 172.195 362.534 170.64C363.341 169.91 364.022 169.296 364.579 168.797C365.069 168.365 365.328 168.134 365.357 168.163V168.163Z" fill="#263238"/>
<path d="M370.483 189.792C370.368 189.734 372.442 183.888 375.149 176.717C377.827 169.546 380.131 163.757 380.246 163.786C380.362 163.843 378.259 169.69 375.552 176.861C372.874 184.061 370.598 189.821 370.483 189.792V189.792Z" fill="#263238"/>
<path d="M407.923 202.32C407.904 202.09 407.894 201.763 407.894 201.341C407.894 200.688 407.885 199.747 407.866 198.518C407.866 196.042 407.837 192.442 407.837 187.862C407.808 178.675 407.779 165.542 407.722 149.731L407.923 149.904C389.376 149.933 367.085 149.933 343.123 149.962L343.354 149.731C343.354 168.739 343.325 186.682 343.325 202.32L343.123 202.118C362.362 202.147 378.518 202.176 389.923 202.205C395.597 202.234 400.09 202.262 403.171 202.262C404.707 202.282 405.878 202.291 406.685 202.291C407.069 202.291 407.376 202.291 407.606 202.291C407.741 202.291 407.846 202.301 407.923 202.32C407.846 202.32 407.75 202.32 407.635 202.32C407.424 202.32 407.126 202.33 406.742 202.349C405.936 202.349 404.774 202.349 403.258 202.349C400.176 202.378 395.712 202.378 390.038 202.406C378.634 202.435 362.419 202.464 343.123 202.522H342.922V202.32C342.922 186.682 342.922 168.739 342.893 149.731V149.501H343.123C367.085 149.53 389.376 149.53 407.923 149.53H408.096V149.731C408.067 165.6 408.038 178.762 408.01 187.978C407.981 192.528 407.981 196.128 407.952 198.605C407.952 199.814 407.942 200.736 407.923 201.37C407.923 201.792 407.923 202.109 407.923 202.32V202.32Z" fill="#263238"/>
<path d="M408.413 157.536C408.413 157.651 393.811 157.766 375.754 157.766C357.725 157.766 343.094 157.651 343.094 157.536C343.094 157.392 357.725 157.306 375.754 157.306C393.811 157.306 408.413 157.392 408.413 157.536Z" fill="#263238"/>
<path d="M348.422 153.706C348.422 154.166 348.019 154.57 347.53 154.57C347.069 154.57 346.666 154.166 346.666 153.706C346.666 153.216 347.069 152.813 347.53 152.813C348.019 152.813 348.422 153.216 348.422 153.706Z" fill="#263238"/>
<path d="M351.59 153.706C351.59 154.166 351.187 154.57 350.726 154.57C350.237 154.57 349.834 154.166 349.834 153.706C349.834 153.216 350.237 152.813 350.726 152.813C351.187 152.813 351.59 153.216 351.59 153.706Z" fill="#263238"/>
<path d="M354.758 153.706C354.758 154.166 354.384 154.57 353.894 154.57C353.405 154.57 353.03 154.166 353.03 153.706C353.03 153.216 353.405 152.813 353.894 152.813C354.384 152.813 354.758 153.216 354.758 153.706Z" fill="#263238"/>
<path d="M276.134 106.733H224.928V70.2432H276.134V106.733Z" fill="#455A64"/>
<path d="M276.538 75.6576C276.538 75.8016 264.989 75.888 250.733 75.888C236.477 75.888 224.899 75.8016 224.899 75.6576C224.899 75.5424 236.477 75.4272 250.733 75.4272C264.989 75.4272 276.538 75.5424 276.538 75.6576Z" fill="white"/>
<path d="M229.104 73.008C229.104 73.3248 228.816 73.6128 228.413 73.6128C228.038 73.6128 227.722 73.3248 227.722 73.008C227.722 72.6624 228.038 72.4032 228.413 72.4032C228.816 72.4032 229.104 72.6624 229.104 73.008Z" fill="white"/>
<path d="M231.638 73.008C231.638 73.3248 231.322 73.6128 230.947 73.6128C230.544 73.6128 230.256 73.3248 230.256 73.008C230.256 72.6624 230.544 72.4032 230.947 72.4032C231.322 72.4032 231.638 72.6624 231.638 73.008Z" fill="white"/>
<path d="M234.144 73.008C234.144 73.3248 233.827 73.6128 233.453 73.6128C233.078 73.6128 232.762 73.3248 232.762 73.008C232.762 72.6624 233.078 72.4032 233.453 72.4032C233.827 72.4032 234.144 72.6624 234.144 73.008Z" fill="white"/>
<path fill-rule="evenodd" clip-rule="evenodd" d="M243.878 90.2304C243.878 92.4192 242.294 93.744 239.674 93.744H236.909V96.9696H235.814V86.688H239.674C242.294 86.688 243.878 88.0128 243.878 90.2304ZM242.784 90.2304C242.784 88.5888 241.69 87.6384 239.645 87.6384H236.909V92.7648H239.645C241.69 92.7648 242.784 91.8432 242.784 90.2304Z" fill="white"/>
<path d="M254.822 86.688V96.9696H253.757V92.2464H247.306V96.9696H246.211V86.688H247.306V91.2672H253.757V86.688H254.822Z" fill="white"/>
<path fill-rule="evenodd" clip-rule="evenodd" d="M266.227 90.2304C266.227 92.4192 264.643 93.744 262.022 93.744H259.258V96.9696H258.163V86.688H262.022C264.643 86.688 266.227 88.0128 266.227 90.2304ZM265.133 90.2304C265.133 88.5888 264.038 87.6384 261.994 87.6384H259.258V92.7648H261.994C264.038 92.7648 265.133 91.8432 265.133 90.2304Z" fill="white"/>
<path d="M172.829 148.579L173.52 147.83C174.326 149.098 175.507 149.76 176.89 149.76C178.934 149.76 179.914 148.608 179.914 146.16V136.397H174.298V135.389H181.037V146.16C181.037 149.242 179.626 150.768 176.89 150.768C175.248 150.768 173.693 149.962 172.829 148.579Z" fill="#80FFDB"/>
<path d="M184.205 149.27L184.694 148.406C185.587 149.155 187.114 149.789 188.813 149.789C191.203 149.789 192.154 148.925 192.154 147.658C192.154 144.317 184.608 146.765 184.608 142.301C184.608 140.573 186.048 139.19 188.928 139.19C190.368 139.19 191.952 139.622 192.845 140.285L192.326 141.178C191.376 140.458 190.138 140.141 188.928 140.141C186.682 140.141 185.702 141.062 185.702 142.272C185.702 145.699 193.248 143.28 193.248 147.629C193.248 149.472 191.664 150.739 188.755 150.739C186.883 150.739 185.098 150.106 184.205 149.27V149.27Z" fill="#80FFDB"/>
<path d="M203.213 158.774C203.213 158.602 203.203 158.371 203.184 158.083C203.184 157.603 203.184 156.941 203.184 156.096C203.155 154.339 203.155 151.805 203.126 148.608C203.098 142.186 203.069 132.998 203.011 121.997L203.213 122.198C191.75 122.198 178.157 122.198 163.584 122.227C163.526 122.256 164.016 121.795 163.814 121.997V122.026V122.083V122.141V122.314V122.63V123.235V124.502C163.814 125.328 163.814 126.154 163.814 126.979C163.814 128.63 163.814 130.262 163.814 131.875C163.814 135.12 163.805 138.288 163.786 141.379C163.786 147.542 163.786 153.389 163.786 158.774L163.584 158.573C175.392 158.602 185.27 158.63 192.24 158.659C195.696 158.688 198.432 158.717 200.304 158.717C201.226 158.736 201.946 158.746 202.464 158.746C202.694 158.746 202.877 158.746 203.011 158.746C203.146 158.765 203.213 158.774 203.213 158.774C203.213 158.774 203.155 158.774 203.04 158.774C202.906 158.774 202.723 158.774 202.493 158.774C201.994 158.794 201.293 158.803 200.39 158.803C198.518 158.832 195.811 158.832 192.355 158.861C185.386 158.89 175.45 158.918 163.584 158.976H163.382V158.774C163.382 153.389 163.382 147.542 163.354 141.379C163.354 138.288 163.354 135.12 163.354 131.875C163.354 130.262 163.354 128.63 163.354 126.979C163.354 126.154 163.354 125.328 163.354 124.502V123.235V122.63V122.314V122.141V122.083V122.026V121.997C163.152 122.198 163.642 121.709 163.584 121.766C178.157 121.795 191.75 121.795 203.213 121.795H203.414V121.997C203.357 133.056 203.328 142.272 203.299 148.723C203.299 151.92 203.27 154.426 203.27 156.182C203.251 157.008 203.242 157.651 203.242 158.112C203.242 158.4 203.232 158.621 203.213 158.774V158.774Z" fill="#80FFDB"/>
<path d="M203.126 127.44C203.126 127.584 194.285 127.67 183.341 127.67C172.426 127.67 163.555 127.584 163.555 127.44C163.555 127.325 172.426 127.238 183.341 127.238C194.285 127.238 203.126 127.325 203.126 127.44Z" fill="#80FFDB"/>
<path d="M167.789 124.762C167.789 125.107 167.472 125.366 167.098 125.366C166.723 125.366 166.406 125.107 166.406 124.762C166.406 124.445 166.723 124.157 167.098 124.157C167.472 124.157 167.789 124.445 167.789 124.762Z" fill="#80FFDB"/>
<path d="M170.323 124.762C170.323 125.107 170.006 125.366 169.632 125.366C169.258 125.366 168.941 125.107 168.941 124.762C168.941 124.445 169.258 124.157 169.632 124.157C170.006 124.157 170.323 124.445 170.323 124.762Z" fill="#80FFDB"/>
<path d="M172.858 124.762C172.858 125.107 172.541 125.366 172.166 125.366C171.763 125.366 171.475 125.107 171.475 124.762C171.475 124.445 171.763 124.157 172.166 124.157C172.541 124.157 172.858 124.445 172.858 124.762Z" fill="#80FFDB"/>
<path d="M347.731 87.7536C347.731 84.0384 350.554 81.2736 354.355 81.2736C356.17 81.2736 357.782 81.8496 358.906 83.0592L358.33 83.664C357.235 82.5696 355.91 82.1376 354.413 82.1376C351.13 82.1376 348.653 84.5568 348.653 87.7536C348.653 90.9792 351.13 93.3984 354.413 93.3984C355.91 93.3984 357.235 92.9376 358.33 91.8432L358.906 92.448C357.782 93.6288 356.17 94.2336 354.355 94.2336C350.554 94.2336 347.731 91.4976 347.731 87.7536V87.7536Z" fill="#80FFDB"/>
<path d="M360.662 92.5056L361.094 91.8144C361.958 92.736 363.571 93.4272 365.299 93.4272C367.862 93.4272 368.986 92.304 368.986 90.9216C368.986 87.0912 361.008 89.3952 361.008 84.672C361.008 82.8576 362.39 81.2736 365.53 81.2736C366.941 81.2736 368.41 81.7056 369.389 82.4256L369.043 83.1744C367.978 82.4544 366.682 82.1088 365.53 82.1088C363.053 82.1088 361.93 83.2608 361.93 84.6432C361.93 88.5024 369.907 86.2272 369.907 90.864C369.907 92.6784 368.467 94.2336 365.328 94.2336C363.427 94.2336 361.584 93.5424 360.662 92.5056V92.5056Z" fill="#80FFDB"/>
<path d="M371.779 92.5056L372.211 91.8144C373.075 92.736 374.717 93.4272 376.416 93.4272C378.979 93.4272 380.102 92.304 380.102 90.9216C380.102 87.0912 372.125 89.3952 372.125 84.672C372.125 82.8576 373.507 81.2736 376.646 81.2736C378.058 81.2736 379.526 81.7056 380.506 82.4256L380.16 83.1744C379.094 82.4544 377.798 82.1088 376.646 82.1088C374.17 82.1088 373.046 83.2608 373.046 84.6432C373.046 88.5024 381.053 86.2272 381.053 90.864C381.053 92.6784 379.584 94.2336 376.445 94.2336C374.544 94.2336 372.701 93.5424 371.779 92.5056V92.5056Z" fill="#80FFDB"/>
<path d="M391.91 104.371C391.91 104.218 391.91 103.997 391.91 103.709C391.891 103.248 391.882 102.595 391.882 101.75C391.882 100.051 391.853 97.5456 391.824 94.3488C391.824 87.984 391.766 78.7968 391.738 67.6224L391.91 67.7952C376.33 67.7952 356.515 67.824 335.002 67.824L335.203 67.6224C335.203 80.6688 335.203 93.1104 335.203 104.371L335.002 104.17C351.706 104.198 365.904 104.256 375.955 104.285C380.966 104.285 384.941 104.314 387.677 104.342C389.04 104.342 390.086 104.342 390.816 104.342C391.162 104.362 391.43 104.371 391.622 104.371C391.814 104.371 391.91 104.371 391.91 104.371C391.93 104.371 391.843 104.381 391.651 104.4C391.459 104.4 391.2 104.4 390.874 104.4C390.144 104.4 389.107 104.41 387.763 104.429C385.056 104.429 381.082 104.458 376.07 104.486C365.99 104.515 351.734 104.544 335.002 104.573H334.771V104.371C334.771 93.1104 334.771 80.6688 334.771 67.6224V67.392H335.002C356.515 67.392 376.33 67.4208 391.91 67.4208H392.112V67.6224C392.054 78.8544 392.026 88.0416 391.997 94.464C391.997 97.632 391.968 100.109 391.968 101.837C391.949 102.662 391.939 103.296 391.939 103.738C391.939 104.026 391.93 104.237 391.91 104.371V104.371Z" fill="#80FFDB"/>
<path d="M391.91 73.0656C391.91 73.1808 379.181 73.296 363.456 73.296C347.702 73.296 334.973 73.1808 334.973 73.0656C334.973 72.9504 347.702 72.8352 363.456 72.8352C379.181 72.8352 391.91 72.9504 391.91 73.0656Z" fill="#80FFDB"/>
<path d="M339.206 70.3872C339.206 70.7328 338.89 70.992 338.515 70.992C338.112 70.992 337.795 70.7328 337.795 70.3872C337.795 70.0416 338.112 69.7824 338.515 69.7824C338.89 69.7824 339.206 70.0416 339.206 70.3872Z" fill="#80FFDB"/>
<path d="M341.741 70.3872C341.741 70.7328 341.424 70.992 341.05 70.992C340.646 70.992 340.33 70.7328 340.33 70.3872C340.33 70.0416 340.646 69.7824 341.05 69.7824C341.424 69.7824 341.741 70.0416 341.741 70.3872Z" fill="#80FFDB"/>
<path d="M344.275 70.3872C344.275 70.7328 343.958 70.992 343.555 70.992C343.181 70.992 342.864 70.7328 342.864 70.3872C342.864 70.0416 343.181 69.7824 343.555 69.7824C343.958 69.7824 344.275 70.0416 344.275 70.3872Z" fill="#80FFDB"/>
<path d="M318.499 174.384H247.018V123.437H318.499V174.384Z" fill="#80FFDB"/>
<path d="M271.123 147.082V157.219H268.79V153.072H264.182V157.219H261.85V147.082H264.182V151.085H268.79V147.082H271.123Z" fill="white"/>
<path d="M275.616 149.011H272.39V147.082H281.203V149.011H277.978V157.219H275.616V149.011Z" fill="white"/>
<path d="M282.47 147.082H284.803V155.29H289.872V157.219H282.47V147.082Z" fill="white"/>
<path d="M300.384 157.219V151.142L297.389 156.125H296.352L293.386 151.258V157.219H291.197V147.082H293.126L296.899 153.389L300.643 147.082H302.573L302.602 157.219H300.384Z" fill="white"/>
<path d="M319.075 130.982C319.075 131.126 302.947 131.213 283.018 131.213C263.117 131.213 246.989 131.126 246.989 130.982C246.989 130.867 263.117 130.752 283.018 130.752C302.947 130.752 319.075 130.867 319.075 130.982Z" fill="white"/>
<path d="M252.864 127.267C252.864 127.728 252.432 128.102 251.885 128.102C251.366 128.102 250.934 127.728 250.934 127.267C250.934 126.806 251.366 126.432 251.885 126.432C252.432 126.432 252.864 126.806 252.864 127.267Z" fill="white"/>
<path d="M256.349 127.267C256.349 127.728 255.946 128.102 255.398 128.102C254.88 128.102 254.448 127.728 254.448 127.267C254.448 126.806 254.88 126.432 255.398 126.432C255.946 126.432 256.349 126.806 256.349 127.267Z" fill="white"/>
<path d="M259.862 127.267C259.862 127.728 259.43 128.102 258.912 128.102C258.365 128.102 257.933 127.728 257.933 127.267C257.933 126.806 258.365 126.432 258.912 126.432C259.43 126.432 259.862 126.806 259.862 127.267Z" fill="white"/>
<path d="M99.6768 223.776C99.6768 223.776 99.6768 223.718 99.6768 223.603C99.6576 223.469 99.648 223.305 99.648 223.113C99.648 222.672 99.6384 222.057 99.6192 221.27C99.6192 219.629 99.5904 217.296 99.5904 214.301C99.5616 208.31 99.5328 199.814 99.4752 189.59L99.6768 189.792C89.7408 189.792 78.0192 189.821 65.52 189.821C65.4624 189.878 65.9232 189.389 65.7216 189.59V189.619V189.677V189.734V189.878V190.166V190.771V191.923C65.7216 192.71 65.7216 193.488 65.7216 194.256C65.7216 195.792 65.7216 197.309 65.7216 198.806C65.7216 201.821 65.7216 204.768 65.7216 207.648C65.7216 213.379 65.6928 218.793 65.6928 223.776L65.4912 223.574C75.7152 223.603 84.24 223.661 90.2304 223.661C93.1968 223.689 95.5584 223.718 97.1712 223.718C97.9776 223.737 98.592 223.747 99.0144 223.747C99.2256 223.747 99.3888 223.747 99.504 223.747C99.6192 223.766 99.6768 223.776 99.6768 223.776C99.6768 223.776 99.6288 223.776 99.5328 223.776C99.4176 223.776 99.264 223.776 99.072 223.776C98.6304 223.795 98.0256 223.805 97.2576 223.805C95.6448 223.833 93.312 223.833 90.3456 223.862C84.3264 223.891 75.7728 223.92 65.4912 223.949H65.3184V223.776C65.2896 218.793 65.2896 213.379 65.2896 207.648C65.2896 204.768 65.2896 201.821 65.2896 198.806C65.2896 197.309 65.2896 195.792 65.2896 194.256C65.2896 193.488 65.2896 192.71 65.2896 191.923V190.771V190.166V189.878V189.734V189.677V189.619V189.59C65.088 189.792 65.5488 189.331 65.52 189.36C78.0192 189.389 89.7408 189.389 99.6768 189.389H99.8784V189.59C99.8208 199.843 99.792 208.397 99.7632 214.416C99.7632 217.382 99.7344 219.715 99.7344 221.357C99.7152 222.125 99.7056 222.729 99.7056 223.171C99.7056 223.344 99.696 223.497 99.6768 223.632C99.6768 223.728 99.6768 223.776 99.6768 223.776V223.776Z" fill="#263238"/>
<path d="M99.6768 189.936C99.7632 190.022 92.2176 197.712 82.8 207.101C73.3824 216.49 65.6928 224.006 65.6064 223.92C65.4912 223.834 73.0656 216.173 82.4832 206.784C91.9008 197.395 99.5904 189.85 99.6768 189.936Z" fill="#263238"/>
<path d="M99.1296 223.546C99.0432 223.632 91.5264 216.202 82.3104 206.899C73.0944 197.626 65.7216 190.022 65.808 189.936C65.8944 189.85 73.4112 197.309 82.6272 206.582C91.8432 215.885 99.216 223.459 99.1296 223.546Z" fill="#263238"/>
<path d="M170.899 198.778C170.899 198.893 157.334 198.979 140.602 198.979C123.84 198.979 110.275 198.893 110.275 198.778C110.275 198.634 123.84 198.547 140.602 198.547C157.334 198.547 170.899 198.634 170.899 198.778Z" fill="#263238"/>
<path d="M170.899 204.221C170.899 204.336 157.334 204.451 140.602 204.451C123.84 204.451 110.275 204.336 110.275 204.221C110.275 204.077 123.84 203.99 140.602 203.99C157.334 203.99 170.899 204.077 170.899 204.221Z" fill="#263238"/>
<path d="M170.899 209.664C170.899 209.779 157.334 209.894 140.602 209.894C123.84 209.894 110.275 209.779 110.275 209.664C110.275 209.549 123.84 209.434 140.602 209.434C157.334 209.434 170.899 209.549 170.899 209.664Z" fill="#263238"/>
<path d="M170.899 215.107C170.899 215.222 157.334 215.338 140.602 215.338C123.84 215.338 110.275 215.222 110.275 215.107C110.275 214.992 123.84 214.877 140.602 214.877C157.334 214.877 170.899 214.992 170.899 215.107Z" fill="#263238"/>
<path d="M137.693 193.306C137.693 193.45 131.472 193.536 123.754 193.536C116.064 193.536 109.843 193.45 109.843 193.306C109.843 193.19 116.064 193.104 123.754 193.104C131.472 193.104 137.693 193.19 137.693 193.306Z" fill="#263238"/>
<path d="M54.7488 179.28C54.8832 179.28 55.0944 179.28 55.3824 179.28C55.8432 179.28 56.496 179.28 57.3408 179.28C59.0688 179.28 61.6032 179.28 64.9152 179.251C71.5392 179.28 81.216 179.28 93.3696 179.28C117.734 179.338 152.093 179.395 192.125 179.453H192.326V179.683C192.326 196.531 192.326 214.79 192.355 233.741V233.971H192.125C189.562 233.971 186.797 233.971 184.003 233.971C182.602 233.971 181.19 233.971 179.77 233.971L180 233.741C180 237.504 180 241.238 180 244.944V245.491L179.626 245.088C175.824 241.315 172.08 237.571 168.422 233.885L168.566 233.971C123.782 233.942 84.0672 233.914 54.7488 233.885H54.576V233.741C54.6336 216.778 54.6624 203.155 54.6624 193.738C54.6912 189.072 54.6912 185.472 54.72 182.995C54.72 181.786 54.72 180.864 54.72 180.23C54.72 179.808 54.7296 179.491 54.7488 179.28C54.7488 179.51 54.7488 179.837 54.7488 180.259C54.768 180.893 54.7776 181.824 54.7776 183.053C54.7776 185.53 54.8064 189.158 54.8064 193.853C54.8352 203.213 54.864 216.806 54.8928 233.741L54.7488 233.568C84.0672 233.568 123.782 233.539 168.566 233.51H168.653L168.739 233.568C172.397 237.254 176.141 240.998 179.942 244.771L179.539 244.944C179.539 241.238 179.539 237.504 179.539 233.741V233.51H179.77C181.19 233.51 182.602 233.51 184.003 233.51C186.797 233.51 189.562 233.51 192.125 233.51L191.894 233.741C191.894 214.79 191.894 196.531 191.894 179.683L192.125 179.885C152.15 179.741 117.85 179.597 93.5136 179.51C81.3312 179.453 71.6544 179.395 65.0016 179.366C61.6896 179.338 59.1264 179.338 57.3984 179.309C56.5344 179.309 55.872 179.309 55.4112 179.309C55.1232 179.309 54.9024 179.299 54.7488 179.28V179.28Z" fill="#263238"/>
<path d="M404.842 373.766H329.846V354.96H404.842V373.766Z" fill="#455A64"/>
<path d="M394.07 367.632H348.365V361.094H394.07V367.632Z" fill="#263238"/>
<path d="M342.605 364.752C342.605 366.768 340.992 368.41 338.976 368.41C336.96 368.41 335.318 366.768 335.318 364.752C335.318 362.736 336.96 361.094 338.976 361.094C340.992 361.094 342.605 362.736 342.605 364.752Z" fill="#263238"/>
<path d="M397.642 354.874H337.766V344.707H397.642V354.874Z" fill="#263238"/>
<path d="M412.733 344.707H337.766V325.901H412.733V344.707Z" fill="#80FFDB"/>
<path d="M360.576 334.829C360.576 332.179 362.621 330.278 365.386 330.278C366.883 330.278 368.179 330.826 368.986 331.834L367.69 333.043C367.085 332.381 366.365 332.006 365.472 332.006C363.83 332.006 362.65 333.187 362.65 334.829C362.65 336.499 363.83 337.651 365.472 337.651C366.365 337.651 367.085 337.306 367.69 336.614L368.986 337.824C368.179 338.832 366.883 339.408 365.357 339.408C362.621 339.408 360.576 337.507 360.576 334.829V334.829Z" fill="white"/>
<path d="M379.67 335.606H377.482V337.738H375.84V335.606H373.68V334.08H375.84V331.92H377.482V334.08H379.67V335.606Z" fill="white"/>
<path d="M387.274 335.606H385.085V337.738H383.472V335.606H381.283V334.08H383.472V331.92H385.085V334.08H387.274V335.606Z" fill="white"/>
<path d="M348.912 344.189C348.768 344.189 348.682 340.099 348.682 335.03C348.682 329.99 348.768 325.901 348.912 325.901C349.027 325.901 349.114 329.99 349.114 335.03C349.114 340.099 349.027 344.189 348.912 344.189Z" fill="#FAFAFA"/>
<path d="M345.629 344.189C345.514 344.189 345.398 340.099 345.398 335.03C345.398 329.99 345.514 325.901 345.629 325.901C345.773 325.901 345.859 329.99 345.859 335.03C345.859 340.099 345.773 344.189 345.629 344.189Z" fill="#FAFAFA"/>
<path d="M400.81 344.189C400.694 344.189 400.579 340.099 400.579 335.03C400.579 329.99 400.694 325.901 400.81 325.901C400.925 325.901 401.04 329.99 401.04 335.03C401.04 340.099 400.925 344.189 400.81 344.189Z" fill="#FAFAFA"/>
<path d="M397.555 344.189C397.411 344.189 397.325 340.099 397.325 335.03C397.325 329.99 397.411 325.901 397.555 325.901C397.67 325.901 397.757 329.99 397.757 335.03C397.757 340.099 397.67 344.189 397.555 344.189Z" fill="#FAFAFA"/>
<path d="M362.534 349.69C362.534 348.48 363.398 347.645 364.579 347.645C365.27 347.645 365.846 347.933 366.163 348.451L365.76 348.71C365.472 348.307 365.069 348.134 364.579 348.134C363.715 348.134 363.082 348.739 363.082 349.69C363.082 350.611 363.715 351.245 364.579 351.245C365.069 351.245 365.472 351.043 365.76 350.64L366.163 350.928C365.846 351.446 365.27 351.706 364.579 351.706C363.398 351.706 362.534 350.87 362.534 349.69V349.69Z" fill="#EBEBEB"/>
<path d="M366.653 351.216L366.912 350.784C367.229 351.043 367.747 351.245 368.323 351.245C369.072 351.245 369.389 350.986 369.389 350.582C369.389 349.546 366.797 350.381 366.797 348.797C366.797 348.134 367.373 347.645 368.381 347.645C368.899 347.645 369.475 347.789 369.792 348.019L369.562 348.451C369.216 348.221 368.784 348.106 368.381 348.106C367.661 348.106 367.344 348.394 367.344 348.768C367.344 349.862 369.936 349.056 369.936 350.582C369.936 351.274 369.331 351.706 368.294 351.706C367.632 351.706 366.998 351.504 366.653 351.216V351.216Z" fill="#EBEBEB"/>
<path d="M370.368 351.216L370.627 350.784C370.944 351.043 371.462 351.245 372.038 351.245C372.787 351.245 373.104 350.986 373.104 350.582C373.104 349.546 370.512 350.381 370.512 348.797C370.512 348.134 371.088 347.645 372.096 347.645C372.614 347.645 373.19 347.789 373.507 348.019L373.277 348.451C372.931 348.221 372.499 348.106 372.096 348.106C371.376 348.106 371.059 348.394 371.059 348.768C371.059 349.862 373.651 349.056 373.651 350.582C373.651 351.274 373.046 351.706 372.01 351.706C371.347 351.706 370.714 351.504 370.368 351.216V351.216Z" fill="#EBEBEB"/>
<path d="M348.365 349.805C348.365 350.813 347.558 351.619 346.579 351.619C345.571 351.619 344.765 350.813 344.765 349.805C344.765 348.797 345.571 347.99 346.579 347.99C347.558 347.99 348.365 348.797 348.365 349.805Z" fill="#EBEBEB"/>
<path d="M393.84 349.805C393.84 350.813 393.034 351.619 392.026 351.619C391.046 351.619 390.24 350.813 390.24 349.805C390.24 348.797 391.046 347.99 392.026 347.99C393.034 347.99 393.84 348.797 393.84 349.805Z" fill="#EBEBEB"/>
<path d="M163.699 353.981H37.6992C31.9968 353.981 27.36 349.344 27.36 343.642V264.384C27.36 258.653 31.9968 254.016 37.6992 254.016H163.699C169.43 254.016 174.067 258.653 174.067 264.384V343.642C174.067 349.344 169.43 353.981 163.699 353.981Z" fill="#263238"/>
<path d="M113.098 329.299L106.186 376.214H68.0544L76.176 330.221L113.098 329.299Z" fill="#455A64"/>
<path d="M157.882 353.981H31.8816C26.1504 353.981 21.5136 349.344 21.5136 343.642V264.384C21.5136 258.653 26.1504 254.016 31.8816 254.016H157.882C163.613 254.016 168.25 258.653 168.25 264.384V343.642C168.25 349.344 163.613 353.981 157.882 353.981Z" fill="#455A64"/>
<path d="M109.469 353.981L113.098 329.299L114.106 353.981H109.469Z" fill="#263238"/>
<path d="M76.4064 327.686C76.5216 327.686 75.6 333.821 74.3328 341.338C73.0656 348.883 71.9424 354.96 71.8272 354.931C71.712 354.931 72.6336 348.797 73.9008 341.28C75.1392 333.734 76.2624 327.658 76.4064 327.686Z" fill="#263238"/>
<path d="M99.7056 300.528C99.7056 303.206 97.5456 305.338 94.896 305.338C92.2176 305.338 90.0864 303.206 90.0864 300.528C90.0864 297.878 92.2176 295.747 94.896 295.747C97.5456 295.747 99.7056 297.878 99.7056 300.528Z" fill="#FAFAFA"/>
<path fill-rule="evenodd" clip-rule="evenodd" d="M94.896 305.366C92.2176 305.366 90.0576 303.206 90.0576 300.528C90.0576 297.878 92.2176 295.718 94.896 295.718C97.5456 295.718 99.7056 297.878 99.7056 300.528C99.7056 303.206 97.5456 305.366 94.896 305.366ZM94.896 295.747C92.2464 295.747 90.0864 297.907 90.0864 300.528C90.0864 303.178 92.2464 305.338 94.896 305.338C97.5168 305.338 99.6768 303.178 99.6768 300.528C99.6768 297.907 97.5168 295.747 94.896 295.747Z" fill="#263238"/>
<path d="M58.2336 283.766C58.4064 284.371 58.5216 285.034 58.5504 285.667C58.5792 287.395 55.7568 289.411 53.7984 290.477C51.8112 291.514 49.104 292.349 47.4336 291.974C46.6272 291.802 45.936 291.024 45.4176 290.275C44.0064 290.419 41.616 290.304 39.5136 287.942C39.264 287.712 38.9472 287.28 38.5632 286.646C38.304 286.272 38.0736 285.84 37.8432 285.379C37.7568 285.206 37.6992 285.034 37.6128 284.861C37.584 284.803 37.5552 284.774 37.5264 284.717C37.5072 284.64 37.4784 284.563 37.44 284.486C37.44 284.448 37.4304 284.419 37.4112 284.4C37.3344 284.189 37.2576 283.968 37.1808 283.738C35.7408 279.302 37.4112 275.702 38.448 273.715C38.7936 273.053 39.2544 272.448 39.744 271.93C41.2416 270.317 43.2576 269.222 45.4176 268.762C48.6144 268.07 51.4656 268.733 53.7696 270C53.8656 270.058 53.9904 270.134 54.144 270.23C54.8544 270.653 55.5168 271.133 56.1312 271.67C56.7648 272.218 57.456 272.88 58.032 273.629C59.184 275.126 59.76 276.259 59.76 277.027C59.76 277.027 59.7504 277.027 59.7312 277.027C60.2496 279.389 59.7504 281.635 58.2336 283.766V283.766Z" fill="#263238"/>
<path d="M57.024 274.838C58.8096 277.718 58.608 280.694 56.4192 283.766C49.2768 287.914 45.1392 290.064 44.0064 290.218C42.3072 290.448 38.5632 290.592 36.0288 285.379C33.4944 280.195 35.4528 275.933 36.6336 273.715C36.9504 273.053 37.44 272.448 37.9296 271.93C39.4272 270.317 41.4432 269.222 43.6032 268.762C49.824 267.408 54.7488 271.152 57.024 274.838V274.838Z" fill="#80FFDB"/>
<path d="M47.6352 283.133C51.6096 280.742 55.2672 281.75 55.584 281.894C55.872 282.038 56.6784 283.968 56.736 285.667C56.7648 287.395 53.9424 289.411 51.9552 290.477C49.9968 291.514 47.2896 292.349 45.6192 291.974C44.5056 291.725 43.5648 290.659 42.7968 288.778C43.3728 286.627 44.9856 284.746 47.6352 283.133V283.133Z" fill="#F5F5F5"/>
<g opacity="0.4">
<path opacity="0.4" d="M48.6144 272.361C50.112 275.155 49.0752 278.611 46.2816 280.109C43.5168 281.606 40.0608 280.57 38.5632 277.776C37.0656 275.011 38.1024 271.555 40.8672 270.057C43.6608 268.56 47.1168 269.597 48.6144 272.361Z" fill="#F5F5F5"/>
</g>
<g opacity="0.4">
<path opacity="0.4" d="M35.712 284.717C35.0016 283.142 34.7328 281.222 34.9056 278.957C36.3744 279.821 37.5264 281.232 38.0736 282.845C38.592 284.486 38.3904 286.387 37.6992 287.942C37.1424 287.462 36.48 286.387 35.712 284.717V284.717Z" fill="#F5F5F5"/>
</g>
<g opacity="0.4">
<path opacity="0.4" d="M57.9456 277.027C56.2464 276.739 54.5472 275.904 53.4816 274.55C52.416 273.226 51.84 271.728 51.9552 270C53.7024 270.979 55.1232 272.189 56.2176 273.629C57.3504 275.126 57.9264 276.259 57.9456 277.027Z" fill="#F5F5F5"/>
</g>
<path d="M47.7792 282.96C50.0832 281.635 53.1072 280.886 55.584 281.894C55.6704 281.923 55.8432 282.154 55.9008 282.442C55.9584 282.672 55.9584 282.902 55.7568 283.018C55.5264 283.133 55.296 283.133 55.0656 283.104C54.1152 283.075 53.2224 282.787 52.272 282.816C51.2352 282.874 50.256 283.277 49.3632 283.766C47.1456 285.005 45.3024 286.906 44.1216 289.152C44.0064 289.382 43.8624 289.613 43.632 289.67C43.4016 289.728 43.1424 289.584 43.0272 289.411C42.912 289.21 42.8544 288.979 42.8256 288.749C44.0064 286.358 45.4752 284.285 47.7792 282.96V282.96Z" fill="#E0E0E0"/>
<path d="M223.661 373.766H140.198V367.891H223.661V373.766Z" fill="#455A64"/>
<path d="M131.069 373.766H113.53V372.326C113.53 368.64 116.525 365.645 120.24 365.645H124.387C128.074 365.645 131.069 368.64 131.069 372.326V373.766Z" fill="#455A64"/>
<path d="M130.81 371.952C130.81 372.067 127.037 372.182 122.371 372.182C117.706 372.182 113.904 372.067 113.904 371.952C113.904 371.837 117.706 371.722 122.371 371.722C127.037 371.722 130.81 371.837 130.81 371.952Z" fill="#263238"/>
<path d="M122.486 365.558C122.63 365.558 122.688 366.97 122.63 368.669C122.602 370.397 122.458 371.75 122.342 371.75C122.198 371.75 122.141 370.368 122.198 368.669C122.227 366.941 122.371 365.558 122.486 365.558Z" fill="#263238"/>
<path d="M416.707 385.459H15.2928V373.766H416.707V385.459Z" fill="#263238"/>
</g>
</svg>
