<svg width="49" height="49" viewBox="0 0 49 49" fill="none" xmlns="http://www.w3.org/2000/svg">
<path d="M49 24.5C49 38.031 38.031 49 24.5 49C10.969 49 0 38.031 0 24.5C0 10.969 10.969 0 24.5 0C38.031 0 49 10.969 49 24.5Z" fill="#262C41"/>
<path d="M28.7042 38.563C27.7242 38.563 26.852 38.367 26.0876 37.975C25.3428 37.6026 24.7548 37.044 24.3236 36.2992C23.8924 35.5544 23.6768 34.6626 23.6768 33.6238C23.6768 33.369 23.6866 33.1044 23.7062 32.83C23.7258 32.5752 23.7552 32.3106 23.7944 32.0362C22.1872 32.1342 20.6976 31.948 19.3256 31.4776C17.9536 31.0072 16.758 30.3114 15.7388 29.3902C14.7196 28.4494 13.9258 27.3224 13.3574 26.0092C12.789 24.6764 12.5048 23.2162 12.5048 21.6286C12.5048 20.1782 12.7498 18.8258 13.2398 17.5714C13.7298 16.2974 14.4354 15.1802 15.3566 14.2198C16.2778 13.2594 17.3852 12.5146 18.6788 11.9854C19.992 11.4366 21.4424 11.1622 23.03 11.1622C24.6176 11.1622 26.0582 11.4268 27.3518 11.956C28.6454 12.4852 29.7528 13.23 30.674 14.1904C31.5952 15.1312 32.3008 16.219 32.7908 17.4538C33.3004 18.6886 33.5552 20.0214 33.5552 21.4522V33.3004C33.5552 34.3588 33.3592 35.28 32.9672 36.064C32.5752 36.8676 32.0166 37.485 31.2914 37.9162C30.5858 38.3474 29.7234 38.563 28.7042 38.563ZM28.5278 36.0346C29.1746 36.0346 29.7038 35.7994 30.1154 35.329C30.527 34.8782 30.7328 34.2216 30.7328 33.3592V26.362C29.7332 27.0088 28.9394 27.6654 28.3514 28.3318C27.7634 28.9982 27.3224 29.645 27.0284 30.2722C26.754 30.8994 26.5678 31.4776 26.4698 32.0068C26.3914 32.536 26.3522 32.977 26.3522 33.3298C26.3522 33.8982 26.4502 34.3784 26.6462 34.7704C26.8618 35.182 27.1362 35.4956 27.4694 35.7112C27.8026 35.9268 28.1554 36.0346 28.5278 36.0346ZM23.03 29.6254C23.3436 29.6254 23.6376 29.6156 23.912 29.596C24.1864 29.5568 24.4804 29.498 24.794 29.4196C25.0684 28.7532 25.4506 28.077 25.9406 27.391C26.4502 26.705 27.0872 26.0288 27.8516 25.3624C28.6356 24.6764 29.596 24.0394 30.7328 23.4514V21.4522C30.7328 20.335 30.5368 19.306 30.1448 18.3652C29.7724 17.4048 29.2334 16.5816 28.5278 15.8956C27.8418 15.19 27.0284 14.6412 26.0876 14.2492C25.1468 13.8376 24.1276 13.6318 23.03 13.6318C21.9128 13.6318 20.8838 13.8376 19.943 14.2492C19.0218 14.6412 18.2084 15.1998 17.5028 15.925C16.8168 16.6502 16.2778 17.5028 15.8858 18.4828C15.5134 19.4432 15.3272 20.4918 15.3272 21.6286C15.3272 22.7654 15.5134 23.8238 15.8858 24.8038C16.2778 25.7642 16.8168 26.607 17.5028 27.3322C18.2084 28.0574 19.0218 28.6258 19.943 29.0374C20.8838 29.4294 21.9128 29.6254 23.03 29.6254Z" fill="#FBFBFB"/>
</svg>
